<?xml version="1.0" encoding="utf-8"?>
<!-- Generator: Adobe Illustrator 25.0.0, SVG Export Plug-In . SVG Version: 6.00 Build 0)  -->
<svg version="1.1" id="Calque_1" xmlns="http://www.w3.org/2000/svg" xmlns:xlink="http://www.w3.org/1999/xlink" x="0px" y="0px"
	 viewBox="0 0 64 64" enable-background="new 0 0 64 64" xml:space="preserve">
<g opacity="0.5">
	<g id="Calque_1_1_">
	</g>
</g>
<g display="none">
	<path display="inline" fill="none" stroke="#000000" stroke-width="2" stroke-miterlimit="10" d="M59.39,32
		c0,0-12.26,15.7-27.39,15.7S4.61,32,4.61,32S16.87,16.3,32,16.3S59.39,32,59.39,32z"/>
	<circle display="inline" stroke="#000000" stroke-width="4" stroke-miterlimit="10" cx="32" cy="31.5" r="11.39"/>
	<circle display="inline" stroke="#FFFFFF" stroke-width="4" stroke-miterlimit="10" cx="32" cy="31.5" r="8.69"/>
	<g display="inline">
		<path fill="#FFFFFF" d="M31.04,36.35c0.76-0.16,1.48-0.31,2.15-0.55c0.66-0.24,1.26-0.56,1.73-1.02c0.48-0.44,0.84-1.01,1.07-1.66
			s0.35-1.38,0.44-2.15c0.32,0.71,0.44,1.52,0.32,2.33c-0.1,0.82-0.52,1.61-1.14,2.2c-0.63,0.58-1.43,0.93-2.22,1.05
			C32.57,36.67,31.77,36.6,31.04,36.35z"/>
	</g>
</g>
<g id="Calque_4">
	<g id="pression">
		<g>
			<path fill="#FFF200" stroke="#000000" stroke-miterlimit="10" d="M31.64,16.593v30.163c-0.108,0-0.205,0.043-0.28,0.108
				L21.205,36.839L9.898,25.672C15.444,20.061,23.143,16.593,31.64,16.593z"/>
			<path fill="#BE1E2D" stroke="#000000" stroke-miterlimit="10" d="M62.202,47.144H32.028c0-0.108-0.043-0.215-0.118-0.28
				l9.864-10.317l10.973-11.49C58.573,30.614,62.202,38.454,62.202,47.144z"/>
			<path fill="#8DC63F" stroke="#000000" stroke-miterlimit="10" d="M31.36,46.864c-0.065,0.075-0.108,0.172-0.108,0.28H1.078
				c0-8.378,3.371-15.959,8.82-21.473l11.307,11.167L31.36,46.864z"/>
			<path fill="#F15A29" stroke="#000000" stroke-miterlimit="10" d="M31.64,16.593v30.163c0.108,0,0.194,0.043,0.269,0.108
				l0.797-0.829l0.011-0.011l9.057-9.477l10.973-11.49C47.255,19.803,39.824,16.593,31.64,16.593z M37.531,32.348l-3.564-0.151
				l2.628-2.121l2.628-2.132l0.528,3.338l0.528,3.338L37.531,32.348z"/>
			<path fill="none" stroke="#000000" stroke-miterlimit="10" d="M32.028,47.144c0,0.215-0.172,0.388-0.388,0.388
				c-0.215,0-0.388-0.172-0.388-0.388c0-0.108,0.043-0.205,0.108-0.28c0.075-0.065,0.172-0.108,0.28-0.108
				c0.108,0,0.194,0.043,0.269,0.108C31.985,46.929,32.028,47.037,32.028,47.144z"/>
			<path fill="none" stroke="#000000" stroke-miterlimit="10" d="M37.649,33.167l-7.366,19.19L30.1,52.281l-0.474-0.183
				c-0.011,0-0.022,0-0.032-0.011l-0.065-0.022l7.366-19.19L37.649,33.167z"/>
			<polygon fill="#939598" stroke="#000000" stroke-miterlimit="10" points="40.277,34.62 37.531,32.348 33.966,32.197 
				36.594,30.076 39.221,27.944 39.749,31.282 			"/>
		</g>
	</g>
</g>
</svg>
