<?xml version="1.0" encoding="utf-8"?>
<!-- Generator: Adobe Illustrator 25.0.0, SVG Export Plug-In . SVG Version: 6.00 Build 0)  -->
<svg version="1.1" id="Calque_1" xmlns="http://www.w3.org/2000/svg" xmlns:xlink="http://www.w3.org/1999/xlink" x="0px" y="0px"
	 viewBox="0 0 64 64" enable-background="new 0 0 64 64" xml:space="preserve">
<g opacity="0.5">
	<g id="Calque_1_1_">
		<path display="none" fill="none" stroke="#000000" stroke-width="2" stroke-miterlimit="10" d="M59.39,32
			c0,0-12.26,15.7-27.39,15.7S4.61,32,4.61,32S16.87,16.3,32,16.3S59.39,32,59.39,32z"/>
		<circle display="none" stroke="#000000" stroke-width="4" stroke-miterlimit="10" cx="32" cy="31.5" r="11.39"/>
		<circle display="none" stroke="#FFFFFF" stroke-width="4" stroke-miterlimit="10" cx="32" cy="31.5" r="8.69"/>
		<g display="none">
			<path display="inline" fill="#FFFFFF" d="M31.04,36.35c0.76-0.16,1.48-0.31,2.15-0.55c0.66-0.24,1.26-0.56,1.73-1.02
				c0.48-0.44,0.84-1.01,1.07-1.66s0.35-1.38,0.44-2.15c0.32,0.71,0.44,1.52,0.32,2.33c-0.1,0.82-0.52,1.61-1.14,2.2
				c-0.63,0.58-1.43,0.93-2.22,1.05C32.57,36.67,31.77,36.6,31.04,36.35z"/>
		</g>
	</g>
</g>
<g>
	<g id="humiditée">
		<path fill="#00AEEF" stroke="#FFFFFF" stroke-miterlimit="10" d="M49.142,45.11c0,9.474-7.682,17.142-17.142,17.142
			S14.858,54.569,14.858,45.11S32.441,1.749,32.441,1.749S49.142,35.65,49.142,45.11z"/>
		<g>
			<path fill="#FFFFFF" stroke="#FFFFFF" stroke-miterlimit="10" d="M45.572,44.478c0,0,0.118,0.338,0.264,0.925
				c0.088,0.294,0.162,0.646,0.176,1.102c0.029,0.441,0.073,0.955,0.015,1.484c-0.029,0.279-0.044,0.558-0.073,0.852
				c-0.059,0.294-0.118,0.588-0.191,0.896c-0.118,0.617-0.382,1.234-0.617,1.88c-0.308,0.617-0.617,1.278-1.043,1.851
				c-0.382,0.617-0.911,1.16-1.395,1.719c-0.558,0.499-1.087,1.014-1.719,1.395c-0.588,0.441-1.249,0.734-1.851,1.058
				c-0.646,0.235-1.263,0.499-1.88,0.617c-0.308,0.059-0.602,0.132-0.896,0.191c-0.294,0.029-0.573,0.044-0.852,0.073
				c-0.543,0.059-1.043,0.015-1.469-0.029c-0.426-0.015-0.808-0.088-1.116-0.176C32.323,58.183,32,58.065,32,58.065
				s0.338-0.147,0.896-0.353c0.279-0.088,0.617-0.235,0.984-0.397c0.367-0.162,0.778-0.323,1.204-0.543
				c0.206-0.103,0.441-0.206,0.661-0.323s0.441-0.25,0.676-0.382c0.47-0.22,0.911-0.588,1.395-0.852
				c0.441-0.353,0.925-0.661,1.366-1.043c0.455-0.353,0.881-0.778,1.307-1.175c0.397-0.441,0.823-0.852,1.175-1.307
				c0.397-0.441,0.69-0.925,1.058-1.366c0.279-0.485,0.632-0.925,0.852-1.395c0.132-0.235,0.264-0.455,0.382-0.676
				c0.103-0.235,0.22-0.455,0.323-0.661c0.235-0.426,0.397-0.823,0.543-1.19c0.162-0.353,0.308-0.705,0.397-0.984
				C45.425,44.801,45.572,44.478,45.572,44.478z"/>
		</g>
	</g>
</g>
</svg>
