<?xml version="1.0" encoding="utf-8"?>
<!-- Generator: Adobe Illustrator 25.0.0, SVG Export Plug-In . SVG Version: 6.00 Build 0)  -->
<svg version="1.1" id="Calque_1" xmlns="http://www.w3.org/2000/svg" xmlns:xlink="http://www.w3.org/1999/xlink" x="0px" y="0px"
	 viewBox="0 0 64 64" enable-background="new 0 0 64 64" xml:space="preserve">
<g display="none" opacity="0.5">
	<g id="Calque_1_1_" display="inline">
		<rect width="64" height="64"/>
	</g>
</g>
<g display="none">
	<path display="inline" fill="none" stroke="#000000" stroke-width="2" stroke-miterlimit="10" d="M59.39,32
		c0,0-12.26,15.7-27.39,15.7S4.61,32,4.61,32S16.87,16.3,32,16.3S59.39,32,59.39,32z"/>
	<circle display="inline" stroke="#000000" stroke-width="4" stroke-miterlimit="10" cx="32" cy="31.5" r="11.39"/>
	<circle display="inline" stroke="#FFFFFF" stroke-width="4" stroke-miterlimit="10" cx="32" cy="31.5" r="8.69"/>
	<g display="inline">
		<path fill="#FFFFFF" d="M31.04,36.35c0.76-0.16,1.48-0.31,2.15-0.55c0.66-0.24,1.26-0.56,1.73-1.02c0.48-0.44,0.84-1.01,1.07-1.66
			s0.35-1.38,0.44-2.15c0.32,0.71,0.44,1.52,0.32,2.33c-0.1,0.82-0.52,1.61-1.14,2.2c-0.63,0.58-1.43,0.93-2.22,1.05
			C32.57,36.67,31.77,36.6,31.04,36.35z"/>
	</g>
</g>
<g id="Calque_4" display="none">
	<g id="pression" display="inline">
		<g>
			<path fill="#FFF200" stroke="#FFFFFF" stroke-miterlimit="10" d="M31.64,15.32v28.01c-0.02,0-0.05,0-0.07,0.02
				c-0.07,0-0.14,0.04-0.19,0.08l-9.43-9.31l-10.5-10.37C16.6,18.54,23.75,15.32,31.64,15.32z"/>
			<path fill="#BE1E2D" stroke="#FFFFFF" stroke-miterlimit="10" d="M60.02,43.69H32c0-0.1-0.04-0.2-0.11-0.26l0.74-0.77l0.01-0.01
				l8.41-8.8l10.19-10.67C56.65,28.34,60.02,35.62,60.02,43.69z"/>
			<path fill="#8DC63F" stroke="#FFFFFF" stroke-miterlimit="10" d="M31.38,43.43c-0.06,0.07-0.1,0.16-0.1,0.26H3.26
				c0-7.78,3.13-14.82,8.19-19.94l10.5,10.37L31.38,43.43z"/>
			<path fill="#F15A29" stroke="#FFFFFF" stroke-miterlimit="10" d="M36.52,30.44l-4.88,12.71v0.18c0.1,0,0.18,0.04,0.25,0.1
				l0.74-0.77l0.01-0.01l4.58-11.94L36.52,30.44z"/>
			<path fill="#F15A24" stroke="#FFFFFF" stroke-miterlimit="10" d="M51.24,23.18L41.05,33.85l-8.41,8.8l4.58-11.94l-0.7-0.27
				l-4.88,12.71V15.32C39.24,15.32,46.14,18.3,51.24,23.18z"/>
			<path stroke="#000000" stroke-miterlimit="10" d="M33.69,43.69c0,1.14-0.91,2.05-2.05,2.05s-2.05-0.91-2.05-2.05
				c0-0.57,0.23-1.08,0.57-1.48c0.4-0.34,0.91-0.57,1.48-0.57s1.02,0.23,1.42,0.57C33.46,42.55,33.69,43.12,33.69,43.69z"/>
			<path stroke="#000000" stroke-miterlimit="10" d="M37.22,30.67l-3.93,10l-0.01,0.01l-0.33,0.86l-1.6,4.05l-0.15-0.06l-0.38-0.14
				c-0.01,0-0.02,0-0.03-0.01l-0.05-0.02l1.43-3.65l0.19-0.46l0.06-0.17l4.19-10.64L37.22,30.67z"/>
		</g>
		<polygon fill="#A7A9AC" stroke="#000000" stroke-miterlimit="10" points="39.17,25 39.68,28.44 40.19,31.89 36.95,30.61 
			33.72,29.33 36.44,27.17 		"/>
	</g>
</g>
<g id="Calque_5" display="none">
	<g id="true_sun" display="inline">
		<g>
			<path fill="#FFC935" stroke="#FFFFFF" stroke-width="0.75" stroke-miterlimit="10" d="M44.08,31.45c0,1.48-0.41,2.85-1.13,4.03
				c-0.3,0.5-0.65,0.96-1.06,1.38c-1.19,1.24-2.79,2.08-4.58,2.31c-0.33,0.04-0.67,0.06-1.01,0.06c-0.25,0-0.5-0.01-0.75-0.03
				c-1.49-0.15-2.87-0.72-3.99-1.6V25.3c0.16-0.13,0.33-0.25,0.5-0.36c0.48-0.32,1.01-0.59,1.56-0.79c0.84-0.31,1.74-0.48,2.68-0.48
				c0.86,0,1.67,0.14,2.44,0.39c0.57,0.19,1.1,0.44,1.6,0.74c1.49,0.9,2.65,2.3,3.26,3.95c0.2,0.55,0.34,1.12,0.42,1.71
				C44.06,30.78,44.08,31.12,44.08,31.45z"/>
			<path fill="#FFC935" stroke="#FFFFFF" stroke-width="0.75" stroke-miterlimit="10" d="M35.44,40.22l-3.88,3.71v-5.04
				C32.7,39.62,34.02,40.08,35.44,40.22z"/>
			<path fill="#FFC935" stroke="#FFFFFF" stroke-width="0.75" stroke-miterlimit="10" d="M43.41,45.68l-5.96-5.33
				c2.05-0.26,3.88-1.23,5.25-2.64L43.41,45.68z"/>
			<path fill="#FFC935" stroke="#FFFFFF" stroke-width="0.75" stroke-miterlimit="10" d="M43.91,36.12
				c0.82-1.34,1.29-2.92,1.29-4.61c0-0.38-0.02-0.77-0.07-1.14l6.67,4.41L43.91,36.12z"/>
			<path fill="#FFC935" stroke="#FFFFFF" stroke-width="0.75" stroke-miterlimit="10" d="M48.52,21.43l-3.87,7
				c-0.7-1.89-2.03-3.49-3.73-4.53L48.52,21.43z"/>
			<path fill="#FFC935" stroke="#FFFFFF" stroke-width="0.75" stroke-miterlimit="10" d="M39.09,23.06
				c-0.88-0.29-1.82-0.45-2.79-0.45c-1.08,0-2.11,0.19-3.07,0.55l2.81-7.48L39.09,23.06z"/>
		</g>
	</g>
	<rect x="9.26" y="18.18" display="inline" fill="#F15A24" stroke="#FFFFFF" stroke-miterlimit="10" width="21.3" height="13.5"/>
	<path display="inline" fill="#C1272D" stroke="#FFFFFF" stroke-miterlimit="10" d="M30.56,10.24v7.94H9.26v-7.94
		c0-2.62,2.23-4.75,4.99-4.75h11.31C28.32,5.49,30.56,7.61,30.56,10.24z"/>
	<rect x="9.26" y="32" display="inline" fill="#D9E021" stroke="#FFFFFF" stroke-miterlimit="10" width="21.3" height="13.13"/>
	<path display="inline" fill="#8CC63F" stroke="#FFFFFF" stroke-miterlimit="10" d="M30.56,45.13v7.6c0,2.68-2.24,4.85-5,4.85H14.25
		c-2.76,0-4.99-2.18-4.99-4.85v-7.6H30.56z"/>
	<rect x="9.26" y="45.12" display="inline" fill="#D9E021" stroke="#FFFFFF" stroke-miterlimit="10" width="21.3" height="0.01"/>
	
		<text transform="matrix(1 0 0 1 32.6621 34.2467)" display="inline" fill="#FFFFFF" font-family="'ArialRoundedMTBold'" font-size="6.5167px">UV</text>
</g>
<g id="Calque_6">
	<path fill="#6A0800" stroke="#000000" stroke-miterlimit="10" d="M41.619,18.369c0,4.058-0.801,7.494-1.922,8.776
		c-0.303,0.356-0.623,0.552-0.961,0.552c-1.584,0-2.884-4.165-2.884-9.327c0-4.806,1.139-8.758,2.581-9.256l0.303-0.053
		c0.338,0,0.659,0.196,0.961,0.552C40.818,10.911,41.619,14.346,41.619,18.369z"/>
	<path fill="none" stroke="#000000" stroke-miterlimit="10" d="M13.281,13.83l-0.712,0.142c0.142-0.125,0.303-0.196,0.463-0.196
		C13.121,13.776,13.192,13.794,13.281,13.83z"/>
	<path fill="none" stroke="#000000" stroke-miterlimit="10" d="M13.37,26.468c-0.107,0.071-0.231,0.107-0.338,0.107
		c-0.142,0-0.267-0.053-0.392-0.125L13.37,26.468z"/>
	<path fill="#C1272D" stroke="#000000" stroke-miterlimit="10" d="M12.64,26.433l-8.473-0.409c-0.89,0-1.62-2.332-1.62-5.233
		c0-2.884,0.73-5.216,1.62-5.216l8.402-1.566c-0.854,0.659-1.495,3.168-1.495,6.195C11.073,23.282,11.75,25.845,12.64,26.433z"/>
	<path fill="#FFFFFF" stroke="#000000" stroke-miterlimit="10" d="M25.563,27.038L13.37,26.45l-0.73-0.036
		c-0.89-0.587-1.566-3.151-1.566-6.248c0-3.026,0.641-5.536,1.495-6.195l0.712-0.142l11.944-2.243
		c-1.228,0.534-2.154,3.791-2.154,7.69C23.071,23.567,24.175,27.038,25.563,27.038z"/>
	<path fill="#C1272D" stroke="#000000" stroke-miterlimit="10" d="M38.735,27.696l-13.172-0.659c-1.388,0-2.492-3.471-2.492-7.761
		c0-3.898,0.926-7.156,2.154-7.69h0.036l0.303-0.071h0.018l12.852-2.421c-1.442,0.498-2.581,4.45-2.581,9.256
		C35.852,23.531,37.151,27.696,38.735,27.696z"/>
	<line fill="none" stroke="#000000" stroke-miterlimit="10" x1="38.735" y1="9.059" x2="55.183" y2="18.387"/>
	<line fill="none" stroke="#000000" stroke-miterlimit="10" x1="38.735" y1="27.696" x2="55.183" y2="18.387"/>
	<path fill="#666666" stroke="#000000" stroke-miterlimit="10" d="M56.233,59.701H55.61c-0.552,0-1.015-0.445-1.015-1.015V10.608
		c0-0.552,0.445-1.015,1.015-1.015h0.623c0.552,0,1.015,0.445,1.015,1.015v48.079C57.23,59.256,56.785,59.701,56.233,59.701z"/>
</g>
</svg>
