<?xml version="1.0" encoding="utf-8"?>
<!-- Generator: Adobe Illustrator 25.0.0, SVG Export Plug-In . SVG Version: 6.00 Build 0)  -->
<svg version="1.1" xmlns="http://www.w3.org/2000/svg" xmlns:xlink="http://www.w3.org/1999/xlink" x="0px" y="0px"
	 viewBox="0 0 64 64" style="enable-background:new 0 0 64 64;" xml:space="preserve">
<style type="text/css">
	.st0{display:none;opacity:0.5;}
	.st1{display:inline;}
	.st2{display:none;}
	.st3{display:inline;fill:none;stroke:#000000;stroke-width:2;stroke-miterlimit:10;}
	.st4{display:inline;stroke:#000000;stroke-width:4;stroke-miterlimit:10;}
	.st5{display:inline;stroke:#FFFFFF;stroke-width:4;stroke-miterlimit:10;}
	.st6{fill:#FFFFFF;}
	.st7{fill:#FFF200;stroke:#FFFFFF;stroke-miterlimit:10;}
	.st8{fill:#BE1E2D;stroke:#FFFFFF;stroke-miterlimit:10;}
	.st9{fill:#8DC63F;stroke:#FFFFFF;stroke-miterlimit:10;}
	.st10{fill:#F15A29;stroke:#FFFFFF;stroke-miterlimit:10;}
	.st11{fill:#F15A24;stroke:#FFFFFF;stroke-miterlimit:10;}
	.st12{stroke:#000000;stroke-miterlimit:10;}
	.st13{fill:#A7A9AC;stroke:#000000;stroke-miterlimit:10;}
</style>
<g class="st0">
	<g id="Calque_1">
		<rect class="st1" width="64" height="64"/>
	</g>
</g>
<g class="st2">
	<path class="st3" d="M59.39,32c0,0-12.26,15.7-27.39,15.7S4.61,32,4.61,32S16.87,16.3,32,16.3S59.39,32,59.39,32z"/>
	<circle class="st4" cx="32" cy="31.5" r="11.39"/>
	<circle class="st5" cx="32" cy="31.5" r="8.69"/>
	<g class="st1">
		<path class="st6" d="M31.04,36.35c0.76-0.16,1.48-0.31,2.15-0.55c0.66-0.24,1.26-0.56,1.73-1.02c0.48-0.44,0.84-1.01,1.07-1.66
			c0.23-0.65,0.35-1.38,0.44-2.15c0.32,0.71,0.44,1.52,0.32,2.33c-0.1,0.82-0.52,1.61-1.14,2.2c-0.63,0.58-1.43,0.93-2.22,1.05
			C32.57,36.67,31.77,36.6,31.04,36.35z"/>
	</g>
</g>
<g id="Calque_4">
	<g id="pression">
		<g>
			<path class="st7" d="M31.64,15.32v28.01c-0.02,0-0.05,0-0.07,0.02c-0.07,0-0.14,0.04-0.19,0.08l-9.43-9.31l-10.5-10.37
				C16.6,18.54,23.75,15.32,31.64,15.32z"/>
			<path class="st8" d="M60.02,43.69H32c0-0.1-0.04-0.2-0.11-0.26l0.74-0.77l0.01-0.01l8.41-8.8l10.19-10.67
				C56.65,28.34,60.02,35.62,60.02,43.69z"/>
			<path class="st9" d="M31.38,43.43c-0.06,0.07-0.1,0.16-0.1,0.26H3.26c0-7.78,3.13-14.82,8.19-19.94l10.5,10.37L31.38,43.43z"/>
			<path class="st10" d="M36.52,30.44l-4.88,12.71v0.18c0.1,0,0.18,0.04,0.25,0.1l0.74-0.77l0.01-0.01l4.58-11.94L36.52,30.44z"/>
			<path class="st11" d="M51.24,23.18L41.05,33.85l-8.41,8.8l4.58-11.94l-0.7-0.27l-4.88,12.71V15.32
				C39.24,15.32,46.14,18.3,51.24,23.18z"/>
			<path class="st12" d="M33.69,43.69c0,1.14-0.91,2.05-2.05,2.05c-1.14,0-2.05-0.91-2.05-2.05c0-0.57,0.23-1.08,0.57-1.48
				c0.4-0.34,0.91-0.57,1.48-0.57c0.57,0,1.02,0.23,1.42,0.57C33.46,42.55,33.69,43.12,33.69,43.69z"/>
			<path class="st12" d="M37.22,30.67l-3.93,10l-0.01,0.01l-0.33,0.86l-1.6,4.05l-0.15-0.06l-0.38-0.14c-0.01,0-0.02,0-0.03-0.01
				l-0.05-0.02l1.43-3.65l0.19-0.46l0.06-0.17l4.19-10.64L37.22,30.67z"/>
		</g>
		<polygon class="st13" points="39.17,25 39.68,28.44 40.19,31.89 36.95,30.61 33.72,29.33 36.44,27.17 		"/>
	</g>
</g>
</svg>
