<?xml version="1.0" encoding="utf-8"?>
<!-- Generator: Adobe Illustrator 25.0.0, SVG Export Plug-In . SVG Version: 6.00 Build 0)  -->
<svg version="1.1" id="Calque_1" xmlns="http://www.w3.org/2000/svg" xmlns:xlink="http://www.w3.org/1999/xlink" x="0px" y="0px"
	 viewBox="0 0 64 64" style="enable-background:new 0 0 64 64;" xml:space="preserve">
<style type="text/css">
	.st0{display:none;}
	.st1{display:inline;fill:#1C75BC;}
	.st2{display:inline;}
	.st3{fill:#FFC935;stroke:#FFFFFF;stroke-width:0.75;stroke-miterlimit:10;}
	.st4{fill:none;stroke:url(#SVGID_1_);stroke-width:4;stroke-linecap:round;stroke-miterlimit:10;}
	.st5{fill:none;stroke:url(#SVGID_2_);stroke-width:4;stroke-linecap:round;stroke-miterlimit:10;}
	.st6{fill:none;stroke:url(#SVGID_3_);stroke-width:4;stroke-linecap:round;stroke-miterlimit:10;}
	.st7{fill:none;stroke:url(#SVGID_4_);stroke-width:4;stroke-linecap:round;stroke-miterlimit:10;}
	.st8{fill:none;stroke:url(#SVGID_5_);stroke-width:4;stroke-linecap:round;stroke-miterlimit:10;}
	.st9{fill:none;stroke:url(#SVGID_6_);stroke-width:4;stroke-linecap:round;stroke-miterlimit:10;}
	.st10{fill:none;stroke:url(#SVGID_7_);stroke-width:4;stroke-linecap:round;stroke-miterlimit:10;}
	.st11{fill:none;stroke:url(#SVGID_8_);stroke-width:4;stroke-linecap:round;stroke-miterlimit:10;}
	.st12{fill:none;stroke:url(#SVGID_9_);stroke-width:4;stroke-linecap:round;stroke-miterlimit:10;}
	.st13{fill:none;stroke:url(#SVGID_10_);stroke-width:4;stroke-linecap:round;stroke-miterlimit:10;}
	.st14{display:inline;fill:url(#SVGID_11_);}
	.st15{display:inline;fill:#49B4E7;stroke:#FFFFFF;stroke-miterlimit:10;}
	.st16{display:inline;fill:#FEDF00;stroke:#F1F2F2;stroke-miterlimit:10;}
	.st17{display:inline;fill:#414042;stroke:#000000;stroke-miterlimit:10;}
	.st18{display:inline;fill:#00AEEF;stroke:#1C75BC;stroke-width:0.75;stroke-miterlimit:10;}
	.st19{display:inline;fill:#00AEEF;stroke:#000000;stroke-width:0.5;stroke-miterlimit:10;}
	.st20{font-family:'ArialMT';}
	.st21{font-size:12px;}
	.st22{fill:#FFD160;}
	.st23{display:inline;fill:#D3EFFC;stroke:#FFFFFF;stroke-miterlimit:10;}
	.st24{display:inline;fill:none;stroke:#BCBEC0;stroke-width:3;stroke-linecap:round;stroke-miterlimit:10;}
	.st25{fill:#E6E7E8;}
	.st26{display:inline;fill:none;stroke:#E6E7E8;stroke-miterlimit:10;}
	.st27{display:inline;fill:#ED1C24;stroke:#E6E7E8;stroke-miterlimit:10;}
	.st28{display:inline;fill:none;stroke:#000000;stroke-miterlimit:10;}
	.st29{display:inline;fill:#00AEEF;stroke:#00AEEF;stroke-miterlimit:10;}
	.st30{fill:#FFF200;stroke:#000000;stroke-miterlimit:10;}
	.st31{fill:#BE1E2D;stroke:#000000;stroke-miterlimit:10;}
	.st32{fill:#8DC63F;stroke:#000000;stroke-miterlimit:10;}
	.st33{fill:#F15A29;stroke:#000000;stroke-miterlimit:10;}
	.st34{fill:none;stroke:#000000;stroke-miterlimit:10;}
	.st35{fill:#939598;stroke:#000000;stroke-miterlimit:10;}
	.st36{fill:#A7A9AC;stroke:#000000;stroke-miterlimit:10;}
	.st37{display:inline;fill:#D92226;stroke:#000000;stroke-miterlimit:10;}
	.st38{display:inline;fill:#BCBEC0;stroke:#000000;stroke-miterlimit:10;}
	.st39{font-size:7.244px;}
	.st40{font-size:11.1362px;}
</style>
<g id="fond" class="st0">
	<rect class="st1" width="64" height="64"/>
</g>
<g id="true_sun" class="st0">
	<g class="st2">
		<path class="st3" d="M47.7,33.5c0,2.9-0.8,5.5-2.2,7.8c-0.6,1-1.3,1.9-2.1,2.7c-2.3,2.4-5.4,4-8.9,4.5c-0.6,0.1-1.3,0.1-2,0.1
			c-0.5,0-1,0-1.5-0.1c-3.5-0.3-6.7-1.9-9-4.2c-0.8-0.8-1.5-1.7-2.1-2.6c-1.6-2.4-2.5-5.2-2.5-8.2c0-0.5,0-1,0.1-1.4
			c0.1-1.2,0.3-2.3,0.7-3.3c1.1-3.3,3.3-6.1,6.1-7.9c0.9-0.6,2-1.1,3-1.5c1.6-0.6,3.4-0.9,5.2-0.9c1.7,0,3.2,0.3,4.7,0.8
			c1.1,0.4,2.1,0.8,3.1,1.4h0c2.9,1.8,5.1,4.5,6.3,7.7c0.4,1,0.7,2.2,0.8,3.3C47.6,32.2,47.7,32.9,47.7,33.5z"/>
		<path class="st3" d="M30.9,50.5L19.7,61.3l0.9-15.5C23.3,48.4,26.9,50.2,30.9,50.5z"/>
		<path class="st3" d="M46.4,61.1L34.8,50.8c4-0.5,7.5-2.4,10.2-5.1L46.4,61.1z"/>
		<path class="st3" d="M47.3,42.6c1.6-2.6,2.5-5.7,2.5-9c0-0.7,0-1.5-0.1-2.2l13,8.6L47.3,42.6z"/>
		<path class="st3" d="M56.3,14.1l-7.5,13.6c-1.4-3.7-3.9-6.8-7.2-8.8L56.3,14.1z"/>
		<path class="st3" d="M38,17.2c-1.7-0.6-3.5-0.9-5.4-0.9c-2.1,0-4.1,0.4-6,1.1L32,2.9L38,17.2z"/>
		<path class="st3" d="M23.1,19.2c-3.3,2.1-5.7,5.3-7,9l-8-13.3L23.1,19.2z"/>
		<path class="st3" d="M18.1,43.2L2.7,41.1l12.7-9c0,0.5-0.1,1.1-0.1,1.6C15.3,37.2,16.3,40.5,18.1,43.2z"/>
	</g>
</g>
<g id="sun" class="st0">
	<g class="st2">
		
			<linearGradient id="SVGID_1_" gradientUnits="userSpaceOnUse" x1="6.306" y1="45.5645" x2="20.901" y2="45.5645" gradientTransform="matrix(1 0 0 -1 0 64)">
			<stop  offset="0" style="stop-color:#FFF33B"/>
			<stop  offset="5.950000e-02" style="stop-color:#FFE029"/>
			<stop  offset="0.1303" style="stop-color:#FFD218"/>
			<stop  offset="0.2032" style="stop-color:#FEC90F"/>
			<stop  offset="0.2809" style="stop-color:#FDC70C"/>
			<stop  offset="0.6685" style="stop-color:#F3903F"/>
			<stop  offset="0.8876" style="stop-color:#ED683C"/>
			<stop  offset="1" style="stop-color:#E93E3A"/>
		</linearGradient>
		<line class="st4" x1="8.3" y1="14.5" x2="18.9" y2="22.3"/>
		
			<linearGradient id="SVGID_2_" gradientUnits="userSpaceOnUse" x1="25.0905" y1="62.059" x2="25.0905" y2="45.514" gradientTransform="matrix(1 0 0 -1 0 64)">
			<stop  offset="0" style="stop-color:#FFF33B"/>
			<stop  offset="5.950000e-02" style="stop-color:#FFE029"/>
			<stop  offset="0.1303" style="stop-color:#FFD218"/>
			<stop  offset="0.2032" style="stop-color:#FEC90F"/>
			<stop  offset="0.2809" style="stop-color:#FDC70C"/>
			<stop  offset="0.6685" style="stop-color:#F3903F"/>
			<stop  offset="0.8876" style="stop-color:#ED683C"/>
			<stop  offset="1" style="stop-color:#E93E3A"/>
		</linearGradient>
		<line class="st5" x1="23.1" y1="3.9" x2="27.1" y2="16.5"/>
		
			<linearGradient id="SVGID_3_" gradientUnits="userSpaceOnUse" x1="39.2145" y1="61.93" x2="39.2145" y2="45.442" gradientTransform="matrix(1 0 0 -1 0 64)">
			<stop  offset="0" style="stop-color:#FFF33B"/>
			<stop  offset="5.950000e-02" style="stop-color:#FFE029"/>
			<stop  offset="0.1303" style="stop-color:#FFD218"/>
			<stop  offset="0.2032" style="stop-color:#FEC90F"/>
			<stop  offset="0.2809" style="stop-color:#FDC70C"/>
			<stop  offset="0.6685" style="stop-color:#F3903F"/>
			<stop  offset="0.8876" style="stop-color:#ED683C"/>
			<stop  offset="1" style="stop-color:#E93E3A"/>
		</linearGradient>
		<line class="st6" x1="41.3" y1="4.1" x2="37.1" y2="16.6"/>
		
			<linearGradient id="SVGID_4_" gradientUnits="userSpaceOnUse" x1="50.584" y1="51.134" x2="50.584" y2="39.473" gradientTransform="matrix(1 0 0 -1 0 64)">
			<stop  offset="0" style="stop-color:#FFF33B"/>
			<stop  offset="5.950000e-02" style="stop-color:#FFE029"/>
			<stop  offset="0.1303" style="stop-color:#FFD218"/>
			<stop  offset="0.2032" style="stop-color:#FEC90F"/>
			<stop  offset="0.2809" style="stop-color:#FDC70C"/>
			<stop  offset="0.6685" style="stop-color:#F3903F"/>
			<stop  offset="0.8876" style="stop-color:#ED683C"/>
			<stop  offset="1" style="stop-color:#E93E3A"/>
		</linearGradient>
		<line class="st7" x1="55.9" y1="14.9" x2="45.2" y2="22.5"/>
		
			<linearGradient id="SVGID_5_" gradientUnits="userSpaceOnUse" x1="63.435" y1="31.838" x2="46.275" y2="31.838" gradientTransform="matrix(1 0 0 -1 0 64)">
			<stop  offset="0" style="stop-color:#FFF33B"/>
			<stop  offset="5.950000e-02" style="stop-color:#FFE029"/>
			<stop  offset="0.1303" style="stop-color:#FFD218"/>
			<stop  offset="0.2032" style="stop-color:#FEC90F"/>
			<stop  offset="0.2809" style="stop-color:#FDC70C"/>
			<stop  offset="0.6685" style="stop-color:#F3903F"/>
			<stop  offset="0.8876" style="stop-color:#ED683C"/>
			<stop  offset="1" style="stop-color:#E93E3A"/>
		</linearGradient>
		<line class="st8" x1="48.3" y1="32.1" x2="61.4" y2="32.2"/>
		
			<linearGradient id="SVGID_6_" gradientUnits="userSpaceOnUse" x1="38.9075" y1="1.941" x2="38.9075" y2="18.487" gradientTransform="matrix(1 0 0 -1 0 64)">
			<stop  offset="0" style="stop-color:#FFF33B"/>
			<stop  offset="5.950000e-02" style="stop-color:#FFE029"/>
			<stop  offset="0.1303" style="stop-color:#FFD218"/>
			<stop  offset="0.2032" style="stop-color:#FEC90F"/>
			<stop  offset="0.2809" style="stop-color:#FDC70C"/>
			<stop  offset="0.6685" style="stop-color:#F3903F"/>
			<stop  offset="0.8876" style="stop-color:#ED683C"/>
			<stop  offset="1" style="stop-color:#E93E3A"/>
		</linearGradient>
		<line class="st9" x1="36.9" y1="47.5" x2="40.9" y2="60.1"/>
		
			<linearGradient id="SVGID_7_" gradientUnits="userSpaceOnUse" x1="24.9805" y1="2.065" x2="24.9805" y2="18.557" gradientTransform="matrix(1 0 0 -1 0 64)">
			<stop  offset="0" style="stop-color:#FFF33B"/>
			<stop  offset="5.950000e-02" style="stop-color:#FFE029"/>
			<stop  offset="0.1303" style="stop-color:#FFD218"/>
			<stop  offset="0.2032" style="stop-color:#FEC90F"/>
			<stop  offset="0.2809" style="stop-color:#FDC70C"/>
			<stop  offset="0.6685" style="stop-color:#F3903F"/>
			<stop  offset="0.8876" style="stop-color:#ED683C"/>
			<stop  offset="1" style="stop-color:#E93E3A"/>
		</linearGradient>
		<line class="st10" x1="26.9" y1="47.4" x2="23.1" y2="59.9"/>
		
			<linearGradient id="SVGID_8_" gradientUnits="userSpaceOnUse" x1="6.063" y1="18.695" x2="20.766" y2="18.695" gradientTransform="matrix(1 0 0 -1 0 64)">
			<stop  offset="0" style="stop-color:#FFF33B"/>
			<stop  offset="5.950000e-02" style="stop-color:#FFE029"/>
			<stop  offset="0.1303" style="stop-color:#FFD218"/>
			<stop  offset="0.2032" style="stop-color:#FEC90F"/>
			<stop  offset="0.2809" style="stop-color:#FDC70C"/>
			<stop  offset="0.6685" style="stop-color:#F3903F"/>
			<stop  offset="0.8876" style="stop-color:#ED683C"/>
			<stop  offset="1" style="stop-color:#E93E3A"/>
		</linearGradient>
		<line class="st11" x1="18.8" y1="41.5" x2="8.1" y2="49.1"/>
		
			<linearGradient id="SVGID_9_" gradientUnits="userSpaceOnUse" x1="0.563" y1="32.1615" x2="17.726" y2="32.1615" gradientTransform="matrix(1 0 0 -1 0 64)">
			<stop  offset="0" style="stop-color:#FFF33B"/>
			<stop  offset="5.950000e-02" style="stop-color:#FFE029"/>
			<stop  offset="0.1303" style="stop-color:#FFD218"/>
			<stop  offset="0.2032" style="stop-color:#FEC90F"/>
			<stop  offset="0.2809" style="stop-color:#FDC70C"/>
			<stop  offset="0.6685" style="stop-color:#F3903F"/>
			<stop  offset="0.8876" style="stop-color:#ED683C"/>
			<stop  offset="1" style="stop-color:#E93E3A"/>
		</linearGradient>
		<line class="st12" x1="2.6" y1="31.8" x2="15.7" y2="31.9"/>
		
			<linearGradient id="SVGID_10_" gradientUnits="userSpaceOnUse" x1="57.69" y1="18.4355" x2="43.099" y2="18.4355" gradientTransform="matrix(1 0 0 -1 0 64)">
			<stop  offset="0" style="stop-color:#FFF33B"/>
			<stop  offset="5.950000e-02" style="stop-color:#FFE029"/>
			<stop  offset="0.1303" style="stop-color:#FFD218"/>
			<stop  offset="0.2032" style="stop-color:#FEC90F"/>
			<stop  offset="0.2809" style="stop-color:#FDC70C"/>
			<stop  offset="0.6685" style="stop-color:#F3903F"/>
			<stop  offset="0.8876" style="stop-color:#ED683C"/>
			<stop  offset="1" style="stop-color:#E93E3A"/>
		</linearGradient>
		<line class="st13" x1="45.1" y1="41.7" x2="55.7" y2="49.5"/>
	</g>
	
		<radialGradient id="SVGID_11_" cx="31.75" cy="31.792" r="12.688" gradientTransform="matrix(1 0 0 -1 0 64)" gradientUnits="userSpaceOnUse">
		<stop  offset="0" style="stop-color:#FFF33B"/>
		<stop  offset="0.1505" style="stop-color:#FFE536"/>
		<stop  offset="0.2527" style="stop-color:#FFD931"/>
		<stop  offset="0.3978" style="stop-color:#FEC72A"/>
		<stop  offset="0.4905" style="stop-color:#FCBA25"/>
		<stop  offset="0.5699" style="stop-color:#FBB323"/>
		<stop  offset="0.5747" style="stop-color:#FBB223"/>
		<stop  offset="0.7067" style="stop-color:#F8A620"/>
		<stop  offset="0.8065" style="stop-color:#F8A21F"/>
		<stop  offset="0.8594" style="stop-color:#F79C1E"/>
		<stop  offset="0.9355" style="stop-color:#F69A1E"/>
		<stop  offset="1" style="stop-color:#F6991E"/>
	</radialGradient>
	<circle class="st14" cx="31.8" cy="32.2" r="12.7"/>
</g>
<g id="cloud" class="st0">
	<path class="st15" d="M36.3,27.1c-0.1,2.6,2,4.8,4.7,4.9l0.4,0l0.1,0l17.4,0c2.4,0.1,4.4-1.7,4.5-3.9c0.1-2.3-1.7-4.2-4.1-4.3
		c-0.7,0-1.3,0.1-1.9,0.3c-0.5-3.4-3.9-6.1-8.1-6.3c-3.9-0.2-6.5,1.9-7.3,4.8c-0.2,0-0.3,0-0.5,0C38.6,22.5,36.4,24.5,36.3,27.1z"/>
	<path class="st15" d="M54.8,37.5c0.2,5.4-3.9,10-9.3,10.2h-0.9l-0.1,0l-34.7,0C5,47.9,1,44.2,0.8,39.5c-0.2-4.7,3.5-8.7,8.2-8.9
		c1.4-0.1,2.6,0.2,3.8,0.7c0.9-7,7.7-12.7,16.2-13.1c7.8-0.3,13,4,14.7,10c0.3,0,0.6-0.1,1-0.1C50,27.9,54.5,32.1,54.8,37.5z"/>
</g>
<g id="cloudy_sun" class="st0">
	<g class="st2">
		<path class="st3" d="M27.1,35.2c0,1.3-0.5,2.6-1.2,3.6c-0.3,0.5-0.6,0.9-1,1.2c-1.1,1.1-2.6,1.8-4.3,2c-0.3,0-0.6,0-0.9,0
			c-0.2,0-0.5,0-0.7-0.1c-1.6-0.2-3.1-1-4.2-2.1c-0.4-0.4-0.7-0.8-1-1.3c-0.7-1.1-1.1-2.5-1-3.9c0-0.2,0-0.5,0.1-0.7
			c0.1-0.5,0.2-1.1,0.4-1.6c0.6-1.5,1.6-2.8,3-3.6c0.5-0.3,0.9-0.5,1.5-0.7c0.8-0.3,1.6-0.4,2.5-0.4c0.8,0,1.5,0.2,2.2,0.4
			c0.5,0.2,1,0.4,1.4,0.7h0c1.3,0.9,2.4,2.2,2.9,3.7c0.2,0.5,0.3,1,0.3,1.6C27.1,34.5,27.1,34.8,27.1,35.2z"/>
		<path class="st3" d="M18.9,42.9l-5.4,4.9l0.7-7.3C15.4,41.8,17,42.7,18.9,42.9z"/>
		<path class="st3" d="M26,48.1l-5.3-5c1.9-0.2,3.6-1,4.9-2.3L26,48.1z"/>
		<path class="st3" d="M26.8,39.4c0.8-1.2,1.3-2.6,1.3-4.2c0-0.4,0-0.7,0-1l6,4.2L26.8,39.4z"/>
		<path class="st3" d="M31.4,26.1l-3.7,6.3c-0.6-1.8-1.7-3.3-3.3-4.2L31.4,26.1z"/>
		<path class="st3" d="M22.8,27.3c-0.8-0.3-1.6-0.5-2.5-0.5c-1,0-1.9,0.1-2.8,0.4l2.8-6.8L22.8,27.3z"/>
		<path class="st3" d="M15.8,28c-1.6,0.9-2.8,2.4-3.4,4.1l-3.5-6.4L15.8,28z"/>
		<path class="st3" d="M13,39.2L5.8,38l6.1-4c0,0.3-0.1,0.5-0.1,0.8C11.8,36.4,12.2,37.9,13,39.2z"/>
	</g>
	<path class="st15" d="M50.9,42c0.2,3.6-2.7,6.7-6.3,6.9H44l-0.1,0l-23.5,0c-3.2,0.1-5.9-2.3-6.1-5.5c-0.1-3.2,2.3-5.9,5.5-6
		c0.9,0,1.8,0.1,2.6,0.5c0.6-4.8,5.2-8.6,10.9-8.8c5.3-0.2,8.8,2.7,9.9,6.8c0.2,0,0.4-0.1,0.7-0.1C47.7,35.5,50.8,38.3,50.9,42z"/>
</g>
<g id="lightning" class="st0">
	<polygon class="st16" points="35.4,40 33.2,54.6 31.1,44.8 26.4,47 21.9,31.8 30,31.9 31.2,41.7 	"/>
	<path class="st17" d="M53.3,29c0,4.6-3.7,8.3-8.3,8.3l-0.8,0l-0.1,0L14.6,36c-4,0-7.3-3.3-7.3-7.3c0-4,3.3-7.3,7.3-7.3
		c1.2,0,2.2,0.3,3.2,0.8c1.1-6,7-10.5,14.2-10.5c6.6,0,10.9,3.8,12.1,9.1c0.3,0,0.5,0,0.8,0C49.6,20.7,53.3,24.4,53.3,29z"/>
</g>
<g id="rain" class="st0">
	<path class="st18" d="M21.6,42.1c0,1.3-1.1,2.4-2.4,2.4c-1.3,0-2.4-1.1-2.4-2.4c0-1.3,1.9-2.9,2.3-6.3
		C20.7,37.9,21.6,40.8,21.6,42.1z"/>
	<path class="st18" d="M31,51.5c0,1.3-1.1,2.4-2.4,2.4c-1.3,0-2.4-1.1-2.4-2.4c0-1.3,1.9-2.9,2.3-6.3C30.2,47.2,31,50.1,31,51.5z"/>
	<path class="st18" d="M41.9,42.8c0,1.3-1.1,2.4-2.4,2.4s-2.4-1.1-2.4-2.4c0-1.3,1.9-2.9,2.3-6.3C41.1,38.6,41.9,41.5,41.9,42.8z"/>
	<path class="st19" d="M-4.9,33.1c1.7,2,2.5,4.9,2.5,6.3s-1.1,2.4-2.4,2.4s-2.4-1.1-2.4-2.4S-5.3,36.5-4.9,33.1"/>
	<path class="st15" d="M5.7,24.4c-0.2,4.9,3.7,9,8.8,9.2l0.8,0l0.1,0l32.6,0c4.4,0.2,8.2-3.1,8.4-7.4c0.2-4.3-3.3-7.9-7.7-8.1
		c-1.3-0.1-2.5,0.2-3.6,0.7c-0.9-6.4-7.3-11.5-15.2-11.8c-7.3-0.3-12.2,3.6-13.8,9.1c-0.3,0-0.6-0.1-0.9-0.1
		C10.2,15.7,5.9,19.5,5.7,24.4z"/>
</g>
<g id="hard_rain" class="st0">
	<path class="st19" d="M-4.3,32.4c1.7,2,2.5,4.9,2.5,6.3s-1.1,2.4-2.4,2.4s-2.4-1.1-2.4-2.4S-4.7,35.8-4.3,32.4"/>
	<path class="st15" d="M57.1,21.8c0.2,5.4-3.9,10-9.3,10.2h-0.9l-0.1,0l-34.7,0c-4.7,0.2-8.7-3.5-8.9-8.2c-0.2-4.7,3.5-8.7,8.2-8.9
		c1.4-0.1,2.6,0.2,3.8,0.7c0.9-7,7.7-12.7,16.2-13.1c7.8-0.3,13,4,14.7,10c0.3,0,0.6-0.1,1-0.1C52.3,12.2,56.9,16.4,57.1,21.8z"/>
	<text transform="matrix(1 0 0 1 14.1875 39.3125)" class="st1 st20 st21">+</text>
	<text transform="matrix(0.7114 -0.7028 0.7028 0.7114 17.5087 40.8096)" class="st1 st20 st21">+</text>
	<text transform="matrix(1 0 0 1 24 50.6855)" class="st1 st20 st21">+</text>
	<text transform="matrix(0.7114 -0.7028 0.7028 0.7114 27.3212 52.1826)" class="st1 st20 st21">+</text>
	<text transform="matrix(1 0 0 1 36.5625 42.8096)" class="st1 st20 st21">+</text>
	<text transform="matrix(0.7114 -0.7028 0.7028 0.7114 39.8837 44.3066)" class="st1 st20 st21">+</text>
</g>
<g id="cloudy_moon" class="st0">
	<g class="st2">
		<path class="st22" d="M57.7,37.9c-1.4,1.5-3.1,2.8-5.1,3.7c-7.5,3.2-16.1-0.2-19.3-7.7c-3.2-7.5,0.2-16.1,7.7-19.3
			c2-0.9,4.2-1.3,6.2-1.2c-3.7,4.1-4.9,10.2-2.5,15.6C46.9,34.4,52.1,37.7,57.7,37.9z"/>
		<polygon class="st22" points="53.7,29.6 54.6,31.6 56.9,31.9 54.8,32.7 54.6,35.1 53.6,33 51.4,32.8 53.4,31.8 		"/>
		<polygon class="st22" points="30.3,13.9 31.2,15.9 33.5,16.2 31.4,17 31.3,19.4 30.3,17.3 28,17.1 30.1,16.1 		"/>
	</g>
	<path class="st23" d="M48.7,41.8c0.2,4.5-3.3,8.3-7.8,8.5h-0.7l-0.1,0l-29,0c-4,0.2-7.3-2.9-7.5-6.8c-0.2-3.9,2.9-7.3,6.8-7.5
		c1.1-0.1,2.2,0.2,3.2,0.6c0.8-5.9,6.4-10.6,13.5-10.9c6.5-0.3,10.8,3.3,12.3,8.4c0.3,0,0.5-0.1,0.8-0.1
		C44.7,33.8,48.5,37.3,48.7,41.8z"/>
</g>
<g id="smock" class="st0">
	<path class="st24" d="M5.9,31.3c16.4-7.9,26.5,10.7,51.1,0"/>
	<path class="st24" d="M5.9,21.3c16.4-7.9,26.5,10.7,51.1,0"/>
	<path class="st24" d="M5.9,41.3c16.4-7.9,26.5,10.7,51.1,0"/>
</g>
<g id="wind__x2B__manche_a_air" class="st0">
	<g class="st2">
		<path class="st25" d="M5.4,30.3c0,0,0.2-0.1,0.5-0.3c0.3-0.2,0.8-0.5,1.5-0.8c0.7-0.3,1.5-0.7,2.5-1c1-0.3,2.1-0.6,3.4-0.7
			c2.6-0.3,5.6,0,8.7,0.7c1.5,0.4,3.1,0.8,4.6,1.2c1.5,0.5,3.1,0.9,4.7,1.3c3.1,0.8,6.2,1.4,9.2,1.6c1.5,0.1,2.9,0.1,4.3,0
			c0.7,0,1.3-0.1,2-0.2c0.6-0.1,1.3-0.1,1.9-0.2c1.2-0.2,2.3-0.4,3.3-0.6c1-0.2,1.8-0.4,2.5-0.6c1.4-0.4,2.2-0.6,2.2-0.6
			s-0.7,0.4-2,1.1c-0.6,0.3-1.4,0.7-2.4,1.1c-0.9,0.4-2,0.8-3.2,1.2c-1.2,0.4-2.5,0.7-4,0.9c-1.4,0.2-3,0.4-4.6,0.4
			c-1.6,0-3.3-0.1-4.9-0.3c-1.7-0.2-3.3-0.6-4.9-1c-1.6-0.5-3.2-1-4.7-1.5c-1.5-0.5-3-1-4.5-1.5c-1.4-0.4-2.8-0.8-4.2-1.1
			c-1.3-0.2-2.6-0.4-3.8-0.5c-1.2-0.1-2.3,0-3.2,0.1c-1,0.1-1.8,0.3-2.5,0.4C6.9,29.8,6.4,30,6,30.1C5.6,30.2,5.4,30.3,5.4,30.3z"/>
	</g>
	<g class="st2">
		<path class="st25" d="M5.4,20.3c0,0,0.2-0.1,0.5-0.3c0.3-0.2,0.8-0.5,1.5-0.8c0.7-0.3,1.5-0.7,2.5-1c1-0.3,2.1-0.6,3.4-0.7
			c2.6-0.3,5.6,0,8.7,0.7c1.5,0.4,3.1,0.8,4.6,1.2c1.5,0.5,3.1,0.9,4.7,1.3c3.1,0.8,6.2,1.4,9.2,1.6c1.5,0.1,2.9,0.1,4.3,0
			c0.7,0,1.3-0.1,2-0.2c0.6-0.1,1.3-0.1,1.9-0.2c1.2-0.2,2.3-0.4,3.3-0.6c1-0.2,1.8-0.4,2.5-0.6c1.4-0.4,2.2-0.6,2.2-0.6
			s-0.7,0.4-2,1.1c-0.6,0.3-1.4,0.7-2.4,1.1c-0.9,0.4-2,0.8-3.2,1.2c-1.2,0.4-2.5,0.7-4,0.9c-1.4,0.2-3,0.4-4.6,0.4
			c-1.6,0-3.3-0.1-4.9-0.3c-1.7-0.2-3.3-0.6-4.9-1c-1.6-0.5-3.2-1-4.7-1.5c-1.5-0.5-3-1-4.5-1.5c-1.4-0.4-2.8-0.8-4.2-1.1
			c-1.3-0.2-2.6-0.4-3.8-0.5c-1.2-0.1-2.3,0-3.2,0.1c-1,0.1-1.8,0.3-2.5,0.4C6.9,19.8,6.4,20,6,20.1C5.6,20.2,5.4,20.3,5.4,20.3z"/>
	</g>
	<g class="st2">
		<path class="st25" d="M5.4,40.3c0,0,0.2-0.1,0.5-0.3c0.3-0.2,0.8-0.5,1.5-0.8c0.7-0.3,1.5-0.7,2.5-1c1-0.3,2.1-0.6,3.4-0.7
			c2.6-0.3,5.6,0,8.7,0.7c1.5,0.4,3.1,0.8,4.6,1.2c1.5,0.5,3.1,0.9,4.7,1.3c3.1,0.8,6.2,1.4,9.2,1.6c1.5,0.1,2.9,0.1,4.3,0
			c0.7,0,1.3-0.1,2-0.2c0.6-0.1,1.3-0.1,1.9-0.2c1.2-0.2,2.3-0.4,3.3-0.6c1-0.2,1.8-0.4,2.5-0.6c1.4-0.4,2.2-0.6,2.2-0.6
			s-0.7,0.4-2,1.1c-0.6,0.3-1.4,0.7-2.4,1.1c-0.9,0.4-2,0.8-3.2,1.2c-1.2,0.4-2.5,0.7-4,0.9c-1.4,0.2-3,0.4-4.6,0.4
			c-1.6,0-3.3-0.1-4.9-0.3c-1.7-0.2-3.3-0.6-4.9-1c-1.6-0.5-3.2-1-4.7-1.5c-1.5-0.5-3-1-4.5-1.5c-1.4-0.4-2.8-0.8-4.2-1.1
			c-1.3-0.2-2.6-0.4-3.8-0.5c-1.2-0.1-2.3,0-3.2,0.1c-1,0.1-1.8,0.3-2.5,0.4C6.9,39.8,6.4,40,6,40.1C5.6,40.2,5.4,40.3,5.4,40.3z"/>
	</g>
</g>
<g id="thermos" class="st0">
	<path class="st26" d="M37,41.4V8.7h0c0-0.1,0-0.1,0-0.2c0-2.7-2.2-4.8-4.8-4.8s-4.8,2.2-4.8,4.8c0,0.1,0,0.1,0,0.2h0v32.5
		c-3,1.7-5.1,4.9-5.1,8.6c0,5.4,4.4,9.8,9.8,9.8s9.8-4.4,9.8-9.8C41.8,46.2,39.8,43.1,37,41.4z M32.1,56.8c-4,0-7.2-3.2-7.2-7.2
		c0-3.2,2.1-5.9,5-6.8v-33h0c0-0.1,0-0.2,0-0.3c0-1.2,1-2.2,2.2-2.2c1.2,0,2.2,1,2.2,2.2c0,0.1,0,0.2,0,0.3h0v33
		c2.9,0.9,5,3.6,5,6.8C39.3,53.6,36,56.8,32.1,56.8z"/>
	<path class="st27" d="M39.3,49.5c0,4-3.2,7.3-7.2,7.3c-4,0-7.2-3.3-7.2-7.3c0-3.2,2.1-6,5-6.9V9.1h0c0-0.1,0-0.2,0-0.3
		c0-1.2,1-2.3,2.2-2.3c1.2,0,2.2,1,2.2,2.3c0,0.1,0,0.2,0,0.3h0v33.5C37.2,43.5,39.3,46.2,39.3,49.5z"/>
	<line class="st28" x1="26.8" y1="12.5" x2="32.2" y2="12.5"/>
	<line class="st28" x1="26.8" y1="23.2" x2="32.2" y2="23.2"/>
	<line class="st28" x1="26.8" y1="34.2" x2="32.2" y2="34.2"/>
</g>
<g id="humiditée" class="st0">
	<path class="st29" d="M46.7,45.8c0,9.1-7.4,16.4-16.4,16.4s-16.4-7.3-16.4-16.4c0-9.1,16.8-41.5,16.8-41.5S46.7,36.7,46.7,45.8z"/>
	<g class="st2">
		<path class="st25" d="M43.2,45.2c0,0,0.1,0.3,0.3,0.9c0.1,0.3,0.2,0.6,0.2,1.1c0,0.4,0.1,0.9,0,1.4c0,0.3,0,0.5-0.1,0.8
			c-0.1,0.3-0.1,0.6-0.2,0.9c-0.1,0.6-0.4,1.2-0.6,1.8c-0.3,0.6-0.6,1.2-1,1.8c-0.4,0.6-0.9,1.1-1.3,1.6c-0.5,0.5-1,1-1.6,1.3
			c-0.6,0.4-1.2,0.7-1.8,1c-0.6,0.2-1.2,0.5-1.8,0.6c-0.3,0.1-0.6,0.1-0.9,0.2c-0.3,0-0.6,0-0.8,0.1c-0.5,0.1-1,0-1.4,0
			c-0.4,0-0.8-0.1-1.1-0.2c-0.6-0.1-0.9-0.3-0.9-0.3s0.3-0.1,0.9-0.3c0.3-0.1,0.6-0.2,0.9-0.4c0.4-0.1,0.7-0.3,1.2-0.5
			c0.2-0.1,0.4-0.2,0.6-0.3c0.2-0.1,0.4-0.2,0.6-0.4c0.5-0.2,0.9-0.6,1.3-0.8c0.4-0.3,0.9-0.6,1.3-1c0.4-0.3,0.8-0.7,1.3-1.1
			c0.4-0.4,0.8-0.8,1.1-1.3c0.4-0.4,0.7-0.9,1-1.3c0.3-0.5,0.6-0.9,0.8-1.3c0.1-0.2,0.3-0.4,0.4-0.6c0.1-0.2,0.2-0.4,0.3-0.6
			c0.2-0.4,0.4-0.8,0.5-1.1c0.2-0.3,0.3-0.7,0.4-1C43.1,45.5,43.2,45.2,43.2,45.2z"/>
	</g>
</g>
<g id="pression" class="st0">
	<g class="st2">
		<path class="st30" d="M32,3.6v28c-0.1,0-0.2,0-0.3,0.1l-9.4-9.3L11.8,12.1C17,6.8,24.1,3.6,32,3.6z"/>
		<path class="st31" d="M60.4,32h-28c0-0.1,0-0.2-0.1-0.3l9.2-9.6l10.2-10.7C57,16.6,60.4,23.9,60.4,32z"/>
		<path class="st32" d="M31.7,31.7c-0.1,0.1-0.1,0.2-0.1,0.3h-28c0-7.8,3.1-14.8,8.2-19.9l10.5,10.4L31.7,31.7z"/>
		<path class="st33" d="M32,3.6v28c0.1,0,0.2,0,0.2,0.1L33,31l0,0l8.4-8.8l10.2-10.7C46.5,6.6,39.6,3.6,32,3.6z M37.5,18.3l-3.3-0.1
			l2.4-2l2.4-2l0.5,3.1l0.5,3.1L37.5,18.3z"/>
		<path class="st34" d="M32.4,32c0,0.2-0.2,0.4-0.4,0.4s-0.4-0.2-0.4-0.4c0-0.1,0-0.2,0.1-0.3c0.1-0.1,0.2-0.1,0.3-0.1
			c0.1,0,0.2,0,0.2,0.1S32.4,31.9,32.4,32z"/>
		<path class="st34" d="M37.6,19l-6.8,17.8l-0.2-0.1l-0.4-0.2c0,0,0,0,0,0l-0.1,0l6.8-17.8L37.6,19z"/>
		<polygon class="st35" points="40,20.4 37.5,18.3 34.2,18.1 36.6,16.1 39,14.2 39.5,17.3 		"/>
		<path class="st36" d="M31.8,43.1c0-0.1,0-0.1,0-0.2c-0.1-2.2-2-4-4.2-4c-1.2,0-2.3,0.6-3,1.5c0-2.2,1.8-4,4-4c0.4,0,0.8,0,1.1,0.1
			c0,0,0,0,0.1,0c0,0,0,0,0,0l0.4,0.2c1.4,0.6,2.5,2,2.5,3.7C32.8,41.4,32.4,42.4,31.8,43.1z"/>
	</g>
</g>
<g id="lieux" class="st0">
	<path class="st37" d="M42,17.6c0,4.3-2.3,8.1-5.7,10.2c-1.8,1.1-4,1.8-6.3,1.8c-2.3,0-4.5-0.7-6.3-1.8c-3.4-2.1-5.7-5.9-5.7-10.2
		c0-6.6,5.3-12,12-12C36.6,5.7,42,11,42,17.6z"/>
	<path class="st38" d="M36.3,27.8L30,59.8l-6.3-31.9c1.8,1.1,4,1.8,6.3,1.8C32.3,29.6,34.5,28.9,36.3,27.8z"/>
</g>
<g id="nord">
	<polygon class="st34" points="31.8,1.7 35.6,11.6 39.4,21.5 31.8,16.4 24.2,21.5 28,11.6 	"/>
	<text transform="matrix(1 0 0 1 29.4415 15.0804)" class="st20 st39">N</text>
</g>
<g id="sud">
	<polygon class="st34" points="31.5,62.3 27.7,52.4 23.9,42.5 31.5,47.6 39.1,42.5 35.3,52.4 	"/>
	<text transform="matrix(1 0 0 1 29.2467 54.1275)" class="st20 st40">s</text>
</g>
<g id="est">
	<polygon class="st34" points="61.9,32 52,35.9 42.1,39.7 47.2,32 42.1,24.4 52,28.2 	"/>
	<text transform="matrix(1 0 0 1 47.7489 34.2457)" class="st20 st39">E</text>
</g>
<g id="ouest">
	<polygon class="st34" points="2.1,32 12,28.2 21.9,24.4 16.8,32 21.9,39.7 12,35.9 	"/>
	<text transform="matrix(1 0 0 1 11.1647 34.5006)" class="st20 st39">O</text>
</g>
</svg>
