<?xml version="1.0" encoding="utf-8"?>
<!-- Generator: Adobe Illustrator 25.0.0, SVG Export Plug-In . SVG Version: 6.00 Build 0)  -->
<svg version="1.1" id="Calque_1" xmlns="http://www.w3.org/2000/svg" xmlns:xlink="http://www.w3.org/1999/xlink" x="0px" y="0px"
	 viewBox="0 0 64 64" style="enable-background:new 0 0 64 64;" xml:space="preserve">
<style type="text/css">
	.st0{display:none;opacity:0.5;}
	.st1{display:inline;}
	.st2{display:none;}
	.st3{display:inline;fill:none;stroke:#000000;stroke-width:2;stroke-miterlimit:10;}
	.st4{display:inline;stroke:#000000;stroke-width:4;stroke-miterlimit:10;}
	.st5{display:inline;stroke:#FFFFFF;stroke-width:4;stroke-miterlimit:10;}
	.st6{fill:#FFFFFF;}
	.st7{fill:#FFF200;stroke:#FFFFFF;stroke-miterlimit:10;}
	.st8{fill:#BE1E2D;stroke:#FFFFFF;stroke-miterlimit:10;}
	.st9{fill:#8DC63F;stroke:#FFFFFF;stroke-miterlimit:10;}
	.st10{fill:#F15A29;stroke:#FFFFFF;stroke-miterlimit:10;}
	.st11{fill:#F15A24;stroke:#FFFFFF;stroke-miterlimit:10;}
	.st12{stroke:#000000;stroke-miterlimit:10;}
	.st13{fill:#A7A9AC;stroke:#000000;stroke-miterlimit:10;}
	.st14{fill:#FFC935;stroke:#FFFFFF;stroke-width:0.75;stroke-miterlimit:10;}
	.st15{display:inline;fill:#F15A24;stroke:#FFFFFF;stroke-miterlimit:10;}
	.st16{display:inline;fill:#C1272D;stroke:#FFFFFF;stroke-miterlimit:10;}
	.st17{display:inline;fill:#D9E021;stroke:#FFFFFF;stroke-miterlimit:10;}
	.st18{display:inline;fill:#8CC63F;stroke:#FFFFFF;stroke-miterlimit:10;}
	.st19{display:inline;fill:#FFFFFF;}
	.st20{font-family:'ArialRoundedMTBold';}
	.st21{font-size:6.5167px;}
	.st22{display:inline;fill:#6A0800;stroke:#000000;stroke-miterlimit:10;}
	.st23{display:inline;fill:none;stroke:#000000;stroke-miterlimit:10;}
	.st24{display:inline;fill:#C1272D;stroke:#000000;stroke-miterlimit:10;}
	.st25{display:inline;fill:#FFFFFF;stroke:#000000;stroke-miterlimit:10;}
	.st26{display:inline;fill:#666666;stroke:#000000;stroke-miterlimit:10;}
	.st27{fill:#FFD160;stroke:#FFFFFF;stroke-miterlimit:10;}
	.st28{display:inline;fill:#29ABE2;stroke:#FFFFFF;stroke-width:0.75;stroke-miterlimit:10;}
	.st29{display:inline;fill:#FFD160;stroke:#FFFFFF;stroke-width:0.75;stroke-miterlimit:10;}
	.st30{fill:#FFD160;stroke:#FFFFFF;stroke-width:0.75;stroke-miterlimit:10;}
	.st31{display:inline;fill:none;stroke:#FFFFFF;stroke-width:0.75;stroke-miterlimit:10;}
	.st32{display:inline;fill:#FFC935;stroke:#FFFFFF;stroke-width:0.75;stroke-miterlimit:10;}
	.st33{fill:none;stroke:#FFFFFF;stroke-width:0.75;stroke-miterlimit:10;}
	.st34{fill:#FFC935;stroke:#FFFFFF;stroke-width:0.25;stroke-miterlimit:10;}
	.st35{fill:none;stroke:#E6E6E6;stroke-width:0.75;stroke-miterlimit:10;}
</style>
<g class="st0">
	<g id="Calque_1_1_" class="st1">
		<rect width="64" height="64"/>
	</g>
</g>
<g class="st2">
	<path class="st3" d="M59.4,32c0,0-12.3,15.7-27.4,15.7S4.6,32,4.6,32S16.9,16.3,32,16.3S59.4,32,59.4,32z"/>
	<circle class="st4" cx="32" cy="31.5" r="11.4"/>
	<circle class="st5" cx="32" cy="31.5" r="8.7"/>
	<g class="st1">
		<path class="st6" d="M31,36.3c0.8-0.2,1.5-0.3,2.2-0.5c0.7-0.2,1.3-0.6,1.7-1c0.5-0.4,0.8-1,1.1-1.7s0.3-1.4,0.4-2.1
			c0.3,0.7,0.4,1.5,0.3,2.3c-0.1,0.8-0.5,1.6-1.1,2.2c-0.6,0.6-1.4,0.9-2.2,1C32.6,36.7,31.8,36.6,31,36.3z"/>
	</g>
</g>
<g id="Calque_4" class="st2">
	<g id="pression" class="st1">
		<g>
			<path class="st7" d="M31.6,15.3v28c0,0,0,0-0.1,0c-0.1,0-0.1,0-0.2,0.1l-9.4-9.3L11.4,23.8C16.6,18.5,23.8,15.3,31.6,15.3z"/>
			<path class="st8" d="M60,43.7H32c0-0.1,0-0.2-0.1-0.3l0.7-0.8l0,0l8.4-8.8l10.2-10.7C56.7,28.3,60,35.6,60,43.7z"/>
			<path class="st9" d="M31.4,43.4c-0.1,0.1-0.1,0.2-0.1,0.3h-28c0-7.8,3.1-14.8,8.2-19.9L22,34.1L31.4,43.4z"/>
			<path class="st10" d="M36.5,30.4l-4.9,12.7v0.2c0.1,0,0.2,0,0.2,0.1l0.7-0.8l0,0l4.6-11.9L36.5,30.4z"/>
			<path class="st11" d="M51.2,23.2L41,33.8l-8.4,8.8l4.6-11.9l-0.7-0.3l-4.9,12.7V15.3C39.2,15.3,46.1,18.3,51.2,23.2z"/>
			<path class="st12" d="M33.7,43.7c0,1.1-0.9,2-2,2s-2-0.9-2-2c0-0.6,0.2-1.1,0.6-1.5c0.4-0.3,0.9-0.6,1.5-0.6s1,0.2,1.4,0.6
				C33.5,42.5,33.7,43.1,33.7,43.7z"/>
			<path class="st12" d="M37.2,30.7l-3.9,10l0,0L33,41.5l-1.6,4l-0.1-0.1l-0.4-0.1c0,0,0,0,0,0l0,0l1.4-3.7l0.2-0.5l0.1-0.2
				l4.2-10.6L37.2,30.7z"/>
		</g>
		<polygon class="st13" points="39.2,25 39.7,28.4 40.2,31.9 37,30.6 33.7,29.3 36.4,27.2 		"/>
	</g>
</g>
<g id="Calque_5" class="st2">
	<g id="true_sun" class="st1">
		<g>
			<path class="st14" d="M44.1,31.5c0,1.5-0.4,2.8-1.1,4c-0.3,0.5-0.7,1-1.1,1.4c-1.2,1.2-2.8,2.1-4.6,2.3c-0.3,0-0.7,0.1-1,0.1
				c-0.2,0-0.5,0-0.8,0c-1.5-0.2-2.9-0.7-4-1.6V25.3c0.2-0.1,0.3-0.2,0.5-0.4c0.5-0.3,1-0.6,1.6-0.8c0.8-0.3,1.7-0.5,2.7-0.5
				c0.9,0,1.7,0.1,2.4,0.4c0.6,0.2,1.1,0.4,1.6,0.7c1.5,0.9,2.7,2.3,3.3,4c0.2,0.5,0.3,1.1,0.4,1.7C44.1,30.8,44.1,31.1,44.1,31.5z"
				/>
			<path class="st14" d="M35.4,40.2l-3.9,3.7v-5C32.7,39.6,34,40.1,35.4,40.2z"/>
			<path class="st14" d="M43.4,45.7l-6-5.3c2-0.3,3.9-1.2,5.2-2.6L43.4,45.7z"/>
			<path class="st14" d="M43.9,36.1c0.8-1.3,1.3-2.9,1.3-4.6c0-0.4,0-0.8-0.1-1.1l6.7,4.4L43.9,36.1z"/>
			<path class="st14" d="M48.5,21.4l-3.9,7c-0.7-1.9-2-3.5-3.7-4.5L48.5,21.4z"/>
			<path class="st14" d="M39.1,23.1c-0.9-0.3-1.8-0.5-2.8-0.5c-1.1,0-2.1,0.2-3.1,0.5l2.8-7.5L39.1,23.1z"/>
		</g>
	</g>
	<rect x="9.3" y="18.2" class="st15" width="21.3" height="13.5"/>
	<path class="st16" d="M30.6,10.2v7.9H9.3v-7.9c0-2.6,2.2-4.8,5-4.8h11.3C28.3,5.5,30.6,7.6,30.6,10.2z"/>
	<rect x="9.3" y="32" class="st17" width="21.3" height="13.1"/>
	<path class="st18" d="M30.6,45.1v7.6c0,2.7-2.2,4.8-5,4.8H14.2c-2.8,0-5-2.2-5-4.8v-7.6H30.6z"/>
	<rect x="9.3" y="45.1" class="st17" width="21.3" height="0"/>
	<text transform="matrix(1 0 0 1 32.6621 34.2467)" class="st19 st20 st21">UV</text>
</g>
<g id="Calque_6" class="st2">
	<path class="st22" d="M33.6,18.9c0,2.3-0.5,4.2-1.1,4.9c-0.2,0.2-0.3,0.3-0.5,0.3c-0.9,0-1.6-2.3-1.6-5.2c0-2.7,0.6-4.9,1.5-5.2
		l0.2,0c0.2,0,0.4,0.1,0.5,0.3C33.2,14.7,33.6,16.6,33.6,18.9z"/>
	<path class="st23" d="M17.7,16.3l-0.4,0.1c0.1-0.1,0.2-0.1,0.3-0.1C17.6,16.3,17.6,16.3,17.7,16.3z"/>
	<path class="st23" d="M17.8,23.4c-0.1,0-0.1,0.1-0.2,0.1c-0.1,0-0.1,0-0.2-0.1L17.8,23.4z"/>
	<path class="st24" d="M17.3,23.4l-4.8-0.2c-0.5,0-0.9-1.3-0.9-2.9c0-1.6,0.4-2.9,0.9-2.9l4.7-0.9c-0.5,0.4-0.8,1.8-0.8,3.5
		C16.5,21.6,16.8,23.1,17.3,23.4z"/>
	<path class="st25" d="M24.6,23.8l-6.9-0.3l-0.4,0c-0.5-0.3-0.9-1.8-0.9-3.5c0-1.7,0.4-3.1,0.8-3.5l0.4-0.1l6.7-1.3
		c-0.7,0.3-1.2,2.1-1.2,4.3C23.2,21.8,23.8,23.8,24.6,23.8z"/>
	<path class="st24" d="M32,24.1l-7.4-0.4c-0.8,0-1.4-2-1.4-4.4c0-2.2,0.5-4,1.2-4.3h0l0.2,0h0l7.2-1.4c-0.8,0.3-1.5,2.5-1.5,5.2
		C30.4,21.8,31.1,24.1,32,24.1z"/>
	<line class="st23" x1="32" y1="13.7" x2="41.2" y2="18.9"/>
	<line class="st23" x1="32" y1="24.1" x2="41.2" y2="18.9"/>
	<path class="st26" d="M41.8,42.1h-0.3c-0.3,0-0.6-0.2-0.6-0.6v-27c0-0.3,0.2-0.6,0.6-0.6h0.3c0.3,0,0.6,0.2,0.6,0.6v27
		C42.4,41.9,42.1,42.1,41.8,42.1z"/>
</g>
<g id="Calque_7" class="st2">
	<g id="true_sun_1_" class="st1">
		<g>
			<path class="st14" d="M32.2,21.7c0.3,1.1,0.2,2.1,0,3.1c-0.1,0.4-0.3,0.8-0.5,1.2c-0.6,1.1-1.6,2-2.9,2.5
				c-0.2,0.1-0.5,0.2-0.7,0.2c-0.2,0-0.4,0.1-0.5,0.1c-1.3,0.2-2.7,0-3.8-0.7c-0.4-0.2-0.7-0.5-1.1-0.8c-0.8-0.7-1.4-1.7-1.7-2.8
				c0-0.2-0.1-0.4-0.1-0.5c-0.1-0.4-0.1-0.9-0.1-1.3c0.1-1.3,0.6-2.6,1.5-3.5c0.3-0.3,0.6-0.6,1-0.9c0.5-0.4,1.2-0.7,1.9-0.9
				c0.6-0.2,1.2-0.2,1.8-0.2c0.4,0,0.9,0.1,1.3,0.2l0,0c1.2,0.4,2.4,1.2,3.1,2.2c0.2,0.4,0.5,0.7,0.6,1.1
				C32.1,21.2,32.1,21.5,32.2,21.7z"/>
			<path class="st14" d="M27.6,29.7l-3.1,5.1l-1.2-5.9C24.5,29.7,26.1,30,27.6,29.7z"/>
			<path class="st14" d="M34.4,32.2l-5.3-2.7c1.4-0.6,2.6-1.6,3.3-2.9L34.4,32.2z"/>
			<path class="st14" d="M33,25.2c0.3-1.1,0.4-2.4,0.1-3.6c-0.1-0.3-0.2-0.5-0.3-0.8l5.7,1.9L33,25.2z"/>
			<path class="st14" d="M33.5,13.6L32,19.4c-0.9-1.2-2.1-2.1-3.6-2.6L33.5,13.6z"/>
			<path class="st14" d="M27,16.6c-0.7,0-1.4,0-2.1,0.2c-0.8,0.2-1.5,0.5-2.1,1l0.6-6L27,16.6z"/>
			<path class="st14" d="M21.6,18.8c-1,1.1-1.6,2.5-1.7,4.1l-4.3-4.2L21.6,18.8z"/>
			<path class="st14" d="M22.1,28.2L16.2,29l3.8-4.6c0,0.2,0.1,0.4,0.1,0.6C20.5,26.3,21.2,27.4,22.1,28.2z"/>
		</g>
	</g>
	<g id="cloudy_moon" class="st1">
		<g>
			<path class="st27" d="M55,29.5c-0.9,1-2.1,1.8-3.4,2.4c-4.9,2-10.6-0.1-12.8-4.9s0.2-10.3,5.1-12.3c1.3-0.6,2.7-0.8,4.1-0.8
				c-2.4,2.6-3.2,6.5-1.7,10C47.8,27.3,51.3,29.4,55,29.5z"/>
			<polygon class="st27" points="52.3,24.2 52.9,25.5 54.5,25.6 53,26.2 52.9,27.7 52.3,26.3 50.8,26.2 52.2,25.6 			"/>
			<polygon class="st27" points="36.9,14.2 37.5,15.5 39,15.6 37.6,16.2 37.5,17.7 36.8,16.3 35.4,16.2 36.7,15.6 			"/>
		</g>
	</g>
	<path class="st28" d="M28.1,33.2c0,0,0-0.1,0-0.1c0-4.8,3.1-8.6,7-8.6s7,3.9,7,8.6"/>
	<path class="st28" d="M42.3,15.6c0,4.8-3.1,8.6-7,8.6c-3.8,0-7-3.8-7-8.5"/>
	<path class="st29" d="M43.3,13.9v1.2c0,0.3-0.2,0.5-0.5,0.5h-1.9v0c0-0.2-0.2-0.4-0.4-0.4c-0.2,0-0.4,0.2-0.4,0.4v0H27.9
		c-0.3,0-0.5-0.2-0.5-0.5v-1.2c0-0.3,0.2-0.5,0.5-0.5h14.9C43.1,13.4,43.3,13.6,43.3,13.9z"/>
	<path class="st29" d="M40.9,15.6L40.9,15.6l-0.9,0v0c0-0.2,0.2-0.4,0.4-0.4C40.7,15.1,40.9,15.4,40.9,15.6z"/>
	<rect x="29.7" y="15.6" class="st29" width="0.9" height="17.6"/>
	<path class="st29" d="M40.9,15.6v17.6H40V15.6c0-0.2,0.2-0.4,0.4-0.4C40.7,15.1,40.9,15.4,40.9,15.6z"/>
	<path class="st29" d="M43.3,33.8v1.2c0,0.3-0.2,0.5-0.5,0.5H27.9c-0.3,0-0.5-0.2-0.5-0.5v-1.2c0-0.3,0.2-0.5,0.5-0.5h14.9
		C43.1,33.2,43.3,33.5,43.3,33.8z"/>
</g>
<g id="Calque_8" class="st2">
	<g id="true_sun_2_" class="st1">
		<g>
			<path class="st14" d="M25.7,27.2c0,0.2,0,0.3-0.1,0.5c-0.2,0.7-0.5,1.4-1,1.9c-0.2,0.2-0.4,0.4-0.7,0.6c-0.7,0.5-1.6,0.7-2.5,0.6
				c-0.2,0-0.3,0-0.5-0.1c-0.1,0-0.2-0.1-0.4-0.1c-0.7-0.2-1.4-0.7-1.8-1.2c-0.2-0.9-0.3-1.8-0.3-2.8c0-0.7,0.1-1.4,0.2-2.1
				c0.4-0.6,1-1.1,1.8-1.3c0.3-0.1,0.6-0.2,0.9-0.2c0.5-0.1,0.9,0,1.4,0c0.4,0.1,0.8,0.2,1.2,0.5c0.3,0.2,0.5,0.3,0.7,0.5
				c0.6,0.6,1.1,1.4,1.2,2.3C25.7,26.6,25.7,26.9,25.7,27.2z"/>
			<path class="st14" d="M20.4,31.1l-0.9,0.5c-0.2-0.4-0.4-0.8-0.5-1.2C19.5,30.7,19.9,30.9,20.4,31.1z"/>
			<path class="st14" d="M24.3,30.6l-0.5,4l-2.4-3.3C22.4,31.4,23.5,31.2,24.3,30.6z"/>
			<path class="st14" d="M29.1,30.1L25,29.9c0.5-0.6,1-1.3,1.1-2.1c0-0.2,0.1-0.4,0.1-0.6L29.1,30.1z"/>
			<path class="st14" d="M28.9,23.2l-2.7,3c-0.1-1-0.6-2-1.4-2.6L28.9,23.2z"/>
			<path class="st14" d="M24.1,23c-0.4-0.2-0.9-0.4-1.3-0.5c-0.5-0.1-1.1-0.1-1.6-0.1l2.2-3.4L24.1,23z"/>
			<path class="st14" d="M20.2,22.6c-0.5,0.2-0.9,0.4-1.3,0.8c0.1-0.4,0.2-0.8,0.4-1.2L20.2,22.6z"/>
		</g>
	</g>
	<g id="cloudy_moon_1_" class="st1">
		<g>
			<path class="st30" d="M42.5,26.6c0,0.4,0,0.7,0,1c-0.1,1.2-0.4,2.4-0.8,3.5v0c-1.5,1.2-3.6,1.5-5.5,0.6c-0.8-0.3-1.4-0.9-2-1.5
				c2.1-0.1,4.1-1.4,5-3.5c0.9-2.1,0.4-4.5-1-6.2c0.8,0,1.6,0.1,2.3,0.5c0.3,0.1,0.6,0.3,0.9,0.5c0.1,0.2,0.2,0.4,0.2,0.6
				c0.1,0.2,0.2,0.4,0.2,0.6c0.1,0.2,0.2,0.5,0.2,0.7c0,0.2,0.1,0.3,0.1,0.5c0,0.2,0.1,0.5,0.1,0.7c0,0.2,0,0.4,0.1,0.6
				c0,0.2,0,0.4,0,0.6C42.5,26.1,42.5,26.4,42.5,26.6z"/>
			<polygon class="st30" points="36.5,28.3 35.7,28.4 35.3,29.2 35.2,28.3 34.4,28 35.3,27.9 35.7,27.1 35.7,27.9 			"/>
		</g>
	</g>
	<circle class="st31" cx="30.5" cy="26.6" r="0.5"/>
	<path class="st31" d="M34.8,8.6v1c0,0.7-0.5,1.2-1.2,1.2h-1.4v2.2c-0.6-0.1-1.2-0.1-1.8-0.1c-0.5,0-1,0-1.5,0.1v-2.2h-1.7
		c-0.6,0-1.2-0.5-1.2-1.2v-1c0-0.7,0.5-1.2,1.2-1.2h6.4C34.2,7.4,34.8,7.9,34.8,8.6z"/>
	<path class="st31" d="M42,15.1l-0.3,0.4c-0.2,0.3-0.6,0.4-0.9,0.1l-0.7-0.5l-0.7,1c-0.2-0.2-0.5-0.4-0.8-0.6
		c-0.2-0.2-0.5-0.3-0.7-0.5l0.7-1l-0.8-0.6c-0.3-0.2-0.4-0.6-0.1-0.9l0.3-0.4c0.2-0.3,0.6-0.4,0.9-0.1l2.9,2.1
		C42.2,14.4,42.3,14.8,42,15.1z"/>
	<path class="st31" d="M21.6,14.4l0.8,1c-0.3,0.2-0.6,0.4-0.8,0.6c-0.2,0.2-0.4,0.4-0.6,0.6l-0.8-0.9l-0.7,0.6
		c-0.3,0.2-0.7,0.2-0.9-0.1l-0.3-0.4c-0.2-0.3-0.2-0.7,0.1-0.9l2.8-2.3c0.3-0.2,0.7-0.2,0.9,0.1l0.3,0.4c0.2,0.3,0.2,0.7-0.1,0.9
		L21.6,14.4z"/>
	<path class="st32" d="M34.9,37.8c0.5-0.2,1.1-0.5,1.6-0.8C36,37.3,35.4,37.5,34.9,37.8z M37.2,36.5c0.5-0.3,0.9-0.7,1.4-1.1
		C38.2,35.8,37.7,36.2,37.2,36.5z"/>
	<path class="st31" d="M20.2,22.6c-0.5,0.2-0.9,0.4-1.3,0.8c0.1-0.4,0.2-0.8,0.4-1.2L20.2,22.6z"/>
	<path class="st31" d="M19,30.4c0.4,0.3,0.9,0.5,1.4,0.7l-0.9,0.5C19.4,31.2,19.2,30.8,19,30.4z"/>
	<path class="st31" d="M21.1,22.4l2.2-3.4l0.7,4c-0.4-0.2-0.9-0.4-1.3-0.5C22.2,22.3,21.7,22.3,21.1,22.4z"/>
	<path class="st31" d="M21.4,31.4c1,0.1,2.1-0.2,2.9-0.8l-0.5,4L21.4,31.4z"/>
	<path class="st31" d="M25.6,27.7c-0.2,0.7-0.5,1.4-1,1.9c-0.2,0.2-0.4,0.4-0.7,0.6c-0.7,0.5-1.6,0.7-2.5,0.6c-0.2,0-0.3,0-0.5-0.1
		c-0.1,0-0.2-0.1-0.4-0.1c-0.7-0.2-1.4-0.7-1.8-1.2c-0.2-0.9-0.3-1.8-0.3-2.8c0-0.7,0.1-1.4,0.2-2.1c0.4-0.6,1-1.1,1.8-1.3
		c0.3-0.1,0.6-0.2,0.9-0.2c0.5-0.1,0.9,0,1.4,0c0.4,0.1,0.8,0.2,1.2,0.5c0.3,0.2,0.5,0.3,0.7,0.5c0.6,0.6,1.1,1.4,1.2,2.3
		c0,0.3,0,0.6,0,0.9C25.7,27.3,25.7,27.5,25.6,27.7z"/>
	<path class="st31" d="M26.2,26.2c-0.1-1-0.6-2-1.4-2.6l4-0.4L26.2,26.2z"/>
	<path class="st31" d="M26.3,27.2l2.8,2.9L25,29.9c0.5-0.6,1-1.3,1.1-2.1C26.2,27.6,26.2,27.4,26.3,27.2z"/>
	<circle class="st31" cx="30.5" cy="26.6" r="0.5"/>
	<path class="st31" d="M34.9,37.8c0.5-0.2,1.1-0.5,1.6-0.8C36,37.3,35.4,37.5,34.9,37.8z"/>
	<polygon class="st31" points="35.2,28.3 34.4,28 35.3,27.9 35.7,27.1 35.7,27.9 36.5,28.3 35.7,28.4 35.3,29.2 	"/>
	<path class="st31" d="M37.2,36.5c0.5-0.3,0.9-0.7,1.4-1.1C38.2,35.8,37.7,36.2,37.2,36.5z"/>
	<path class="st31" d="M42.5,26.6c0,0.4,0,0.7,0,1c-0.1,1.2-0.4,2.4-0.8,3.5v0c-1.5,1.2-3.6,1.5-5.5,0.6c-0.8-0.3-1.4-0.9-2-1.5
		c2.1-0.1,4.1-1.4,5-3.5c0.9-2.1,0.4-4.5-1-6.2c0.8,0,1.6,0.1,2.3,0.5c0.3,0.1,0.6,0.3,0.9,0.5c0.1,0.2,0.2,0.4,0.2,0.6
		c0.1,0.2,0.2,0.4,0.2,0.6c0.1,0.2,0.2,0.5,0.2,0.7c0,0.2,0.1,0.3,0.1,0.5c0,0.2,0.1,0.5,0.1,0.7c0,0.2,0,0.4,0.1,0.6
		c0,0.2,0,0.4,0,0.6C42.5,26.1,42.5,26.4,42.5,26.6z"/>
	<line class="st31" x1="30.5" y1="26.6" x2="30.5" y2="16.8"/>
	<line class="st31" x1="30.5" y1="26.6" x2="37.3" y2="26.6"/>
	<path class="st31" d="M21.6,14.4l0.8,1c-0.3,0.2-0.6,0.4-0.8,0.6c-0.2,0.2-0.4,0.4-0.6,0.6l-0.8-0.9l-0.7,0.6
		c-0.3,0.2-0.7,0.2-0.9-0.1l-0.3-0.4c-0.2-0.3-0.2-0.7,0.1-0.9l2.8-2.3c0.3-0.2,0.7-0.2,0.9,0.1l0.3,0.4c0.2,0.3,0.2,0.7-0.1,0.9
		L21.6,14.4z"/>
	<path class="st31" d="M32.2,13c-0.6-0.1-1.2-0.1-1.8-0.1c-0.5,0-1,0-1.5,0.1c-5,0.6-9.2,3.9-11.1,8.4c-0.2,0.5-0.4,1-0.5,1.5
		c-0.3,0.9-0.4,1.9-0.5,2.9c0,0.3,0,0.5,0,0.8c0,0.6,0,1.1,0.1,1.7c0.1,1,0.3,1.9,0.6,2.8c0.2,0.5,0.4,0.9,0.6,1.4
		c2.2,4.6,6.9,7.8,12.3,7.8c7.6,0,13.7-6.1,13.7-13.7C44.1,19.6,38.9,13.9,32.2,13z M41.6,31.1L41.6,31.1c0,0.1,0,0.1,0,0.1
		c-0.1,0.2-0.2,0.5-0.3,0.7c-0.1,0.3-0.3,0.5-0.4,0.8c-0.1,0.2-0.2,0.4-0.4,0.6c-0.1,0.1-0.1,0.2-0.2,0.2c-0.2,0.2-0.3,0.4-0.5,0.6
		c-0.2,0.2-0.4,0.4-0.6,0.7c-0.2,0.2-0.4,0.4-0.6,0.6c-0.4,0.4-0.9,0.8-1.4,1.1c-0.2,0.2-0.5,0.3-0.7,0.5c-0.5,0.3-1,0.6-1.6,0.8
		c-0.2,0.1-0.4,0.2-0.7,0.2c-0.3,0.1-0.5,0.2-0.8,0.2c-0.1,0-0.2,0.1-0.3,0.1c-0.2,0-0.4,0.1-0.6,0.1c-0.1,0-0.2,0-0.3,0
		c-0.3,0-0.5,0.1-0.8,0.1c0,0,0,0-0.1,0c-0.3,0-0.6,0-0.9,0c-4.8,0-9-2.9-10.9-7c-0.2-0.4-0.4-0.8-0.5-1.2c-0.1-0.3-0.2-0.7-0.3-1
		c-0.2-0.9-0.3-1.8-0.3-2.8c0-0.7,0.1-1.4,0.2-2.1c0.1-0.4,0.1-0.7,0.2-1.1c0.1-0.4,0.2-0.8,0.4-1.2c1.6-4,5.2-6.9,9.6-7.5
		c0.5-0.1,1-0.1,1.5-0.1c0.6,0,1.2,0,1.8,0.1c0.3,0,0.5,0.1,0.8,0.1c0.2,0,0.3,0.1,0.5,0.1c0.1,0,0.2,0.1,0.4,0.1
		c0.2,0.1,0.3,0.1,0.5,0.2c0.1,0,0.2,0.1,0.3,0.1c0.2,0.1,0.3,0.1,0.5,0.2c0.1,0,0.1,0.1,0.2,0.1c0.4,0.2,0.8,0.4,1.2,0.6
		c0.2,0.1,0.5,0.3,0.7,0.4c0.2,0.1,0.4,0.3,0.6,0.4c0.2,0.2,0.4,0.3,0.6,0.5c0.2,0.1,0.3,0.3,0.5,0.4c0,0,0,0,0.1,0.1
		c0.2,0.2,0.3,0.4,0.5,0.5s0.3,0.4,0.5,0.5c0,0,0,0,0,0c0.2,0.2,0.3,0.4,0.4,0.6c0,0,0,0,0,0c0.1,0.2,0.3,0.4,0.4,0.6c0,0,0,0,0,0.1
		c0.1,0.2,0.2,0.4,0.3,0.6c0.1,0.2,0.2,0.5,0.3,0.7c0.1,0.2,0.2,0.4,0.2,0.6c0.1,0.2,0.2,0.4,0.2,0.6c0.1,0.2,0.2,0.5,0.2,0.7
		c0,0.2,0.1,0.3,0.1,0.5c0,0.2,0.1,0.5,0.1,0.7c0,0.2,0,0.4,0.1,0.6c0,0.2,0,0.4,0,0.6c0,0.2,0,0.4,0,0.6c0,0.4,0,0.7,0,1
		C42.3,28.9,42,30,41.6,31.1z"/>
	<path class="st31" d="M26,9.5v-1c0-0.7,0.5-1.2,1.2-1.2h6.4c0.7,0,1.2,0.5,1.2,1.2v1c0,0.7-0.5,1.2-1.2,1.2h-1.4v2.2
		c-0.6-0.1-1.2-0.1-1.8-0.1c-0.5,0-1,0-1.5,0.1v-2.2h-1.7C26.5,10.7,26,10.2,26,9.5z"/>
	<path class="st31" d="M36.1,31.8c-0.8-0.3-1.4-0.9-2-1.5c2.1-0.1,4.1-1.4,5-3.5c0.9-2.1,0.4-4.5-1-6.2c0.8,0,1.6,0.1,2.3,0.5
		c0.3,0.1,0.6,0.3,0.9,0.5c-0.1-0.2-0.2-0.5-0.3-0.7c-0.1-0.2-0.2-0.4-0.3-0.6c0,0,0,0,0-0.1c-0.1-0.2-0.2-0.4-0.4-0.6c0,0,0,0,0,0
		c-0.1-0.2-0.3-0.4-0.4-0.6c0,0,0,0,0,0c-0.2-0.2-0.3-0.4-0.5-0.5S39,18.2,38.9,18c0,0,0,0-0.1-0.1c-0.2-0.1-0.3-0.3-0.5-0.4
		c-0.2-0.2-0.4-0.3-0.6-0.5c-0.2-0.1-0.4-0.3-0.6-0.4c-0.2-0.1-0.5-0.3-0.7-0.4c-0.4-0.2-0.8-0.4-1.2-0.6c-0.1,0-0.1-0.1-0.2-0.1
		c-0.2-0.1-0.3-0.1-0.5-0.2c-0.1,0-0.2-0.1-0.3-0.1c-0.2-0.1-0.3-0.1-0.5-0.2c-0.1,0-0.2-0.1-0.4-0.1c-0.2,0-0.3-0.1-0.5-0.1
		c-0.2-0.1-0.5-0.1-0.8-0.1c-0.6-0.1-1.2-0.1-1.8-0.1c-0.5,0-1,0-1.5,0.1c-4.4,0.6-8,3.5-9.6,7.5l0.9,0.5c-0.5,0.2-0.9,0.4-1.3,0.8
		c-0.1,0.4-0.2,0.7-0.2,1.1c0.4-0.6,1-1.1,1.8-1.3c0.3-0.1,0.6-0.2,0.9-0.2c0.5-0.1,0.9,0,1.4,0c0.4,0.1,0.8,0.2,1.2,0.5
		c0.3,0.2,0.5,0.3,0.7,0.5c0.6,0.6,1.1,1.4,1.2,2.3c0,0.3,0,0.6,0,0.9c0,0.2,0,0.3-0.1,0.5c-0.2,0.7-0.5,1.4-1,1.9
		c-0.2,0.2-0.4,0.4-0.7,0.6c-0.7,0.5-1.6,0.7-2.5,0.6c-0.2,0-0.3,0-0.5-0.1c-0.1,0-0.2-0.1-0.4-0.1c-0.7-0.2-1.4-0.7-1.8-1.2
		c0.1,0.4,0.2,0.7,0.3,1c0.4,0.3,0.9,0.5,1.4,0.7l-0.9,0.5c1.9,4.1,6.1,7,10.9,7c0.3,0,0.6,0,0.9,0c0,0,0,0,0.1,0
		c0.3,0,0.5,0,0.8-0.1c0.1,0,0.2,0,0.3,0c0.2,0,0.4-0.1,0.6-0.1c0.1,0,0.2-0.1,0.3-0.1c0.3-0.1,0.6-0.1,0.8-0.2
		c0.2-0.1,0.5-0.2,0.7-0.2c0.5-0.2,1.1-0.5,1.6-0.8c0.2-0.2,0.5-0.3,0.7-0.5c0.5-0.3,0.9-0.7,1.4-1.1c0.2-0.2,0.4-0.4,0.6-0.6
		s0.4-0.4,0.6-0.7c0.2-0.2,0.3-0.4,0.5-0.6c0-0.1,0.1-0.2,0.2-0.2c0.1-0.2,0.2-0.4,0.4-0.6c0.2-0.2,0.3-0.5,0.4-0.8
		c0.1-0.2,0.2-0.5,0.3-0.7c0,0,0-0.1,0-0.1C40,32.3,38,32.6,36.1,31.8z M35.3,27.9l0.3-0.8l0.1,0.9l0.8,0.4l-0.8,0.1l-0.4,0.8l0-0.9
		L34.4,28L35.3,27.9z M22.7,22.4c-0.5-0.1-1.1-0.1-1.6-0.1l2.2-3.4l0.7,4C23.7,22.7,23.2,22.5,22.7,22.4z M23.8,34.6l-2.4-3.3
		c1,0.1,2.1-0.2,2.9-0.8L23.8,34.6z M24.9,23.6l4-0.4l-2.7,3C26.1,25.2,25.6,24.3,24.9,23.6z M25,30c0.5-0.6,1-1.3,1.1-2.1
		c0-0.2,0.1-0.4,0.1-0.6l2.8,2.9L25,30z M30.5,27c-0.2,0-0.5-0.2-0.5-0.5s0.2-0.5,0.5-0.5s0.5,0.2,0.5,0.5S30.7,27,30.5,27z"/>
	<path class="st31" d="M20.2,22.6c-0.5,0.2-0.9,0.4-1.3,0.8c0.1-0.4,0.2-0.8,0.4-1.2L20.2,22.6z"/>
	<path class="st31" d="M19,30.4c0.4,0.3,0.9,0.5,1.4,0.7l-0.9,0.5C19.4,31.2,19.2,30.8,19,30.4z"/>
	<path class="st31" d="M21.1,22.4l2.2-3.4l0.7,4c-0.4-0.2-0.9-0.4-1.3-0.5C22.2,22.3,21.7,22.3,21.1,22.4z"/>
	<path class="st31" d="M21.4,31.4c1,0.1,2.1-0.2,2.9-0.8l-0.5,4L21.4,31.4z"/>
	<path class="st31" d="M25.6,27.7c-0.2,0.7-0.5,1.4-1,1.9c-0.2,0.2-0.4,0.4-0.7,0.6c-0.7,0.5-1.6,0.7-2.5,0.6c-0.2,0-0.3,0-0.5-0.1
		c-0.1,0-0.2-0.1-0.4-0.1c-0.7-0.2-1.4-0.7-1.8-1.2c-0.2-0.9-0.3-1.8-0.3-2.8c0-0.7,0.1-1.4,0.2-2.1c0.4-0.6,1-1.1,1.8-1.3
		c0.3-0.1,0.6-0.2,0.9-0.2c0.5-0.1,0.9,0,1.4,0c0.4,0.1,0.8,0.2,1.2,0.5c0.3,0.2,0.5,0.3,0.7,0.5c0.6,0.6,1.1,1.4,1.2,2.3
		c0,0.3,0,0.6,0,0.9C25.7,27.3,25.7,27.5,25.6,27.7z"/>
	<path class="st31" d="M26.2,26.2c-0.1-1-0.6-2-1.4-2.6l4-0.4L26.2,26.2z"/>
	<path class="st31" d="M26.3,27.2l2.8,2.9L25,29.9c0.5-0.6,1-1.3,1.1-2.1C26.2,27.6,26.2,27.4,26.3,27.2z"/>
	<circle class="st31" cx="30.5" cy="26.6" r="0.5"/>
	<path class="st31" d="M34.9,37.8c0.5-0.2,1.1-0.5,1.6-0.8C36,37.3,35.4,37.5,34.9,37.8z"/>
	<polygon class="st31" points="35.2,28.3 34.4,28 35.3,27.9 35.7,27.1 35.7,27.9 36.5,28.3 35.7,28.4 35.3,29.2 	"/>
	<path class="st31" d="M37.2,36.5c0.5-0.3,0.9-0.7,1.4-1.1C38.2,35.8,37.7,36.2,37.2,36.5z"/>
	<path class="st31" d="M42.5,26.6c0,0.4,0,0.7,0,1c-0.1,1.2-0.4,2.4-0.8,3.5v0c-1.5,1.2-3.6,1.5-5.5,0.6c-0.8-0.3-1.4-0.9-2-1.5
		c2.1-0.1,4.1-1.4,5-3.5c0.9-2.1,0.4-4.5-1-6.2c0.8,0,1.6,0.1,2.3,0.5c0.3,0.1,0.6,0.3,0.9,0.5c0.1,0.2,0.2,0.4,0.2,0.6
		c0.1,0.2,0.2,0.4,0.2,0.6c0.1,0.2,0.2,0.5,0.2,0.7c0,0.2,0.1,0.3,0.1,0.5c0,0.2,0.1,0.5,0.1,0.7c0,0.2,0,0.4,0.1,0.6
		c0,0.2,0,0.4,0,0.6C42.5,26.1,42.5,26.4,42.5,26.6z"/>
	<path class="st31" d="M42,15.1l-0.3,0.4c-0.2,0.3-0.6,0.4-0.9,0.1l-0.7-0.5l-0.7,1c-0.2-0.2-0.5-0.4-0.8-0.6
		c-0.2-0.2-0.5-0.3-0.7-0.5l0.7-1l-0.8-0.6c-0.3-0.2-0.4-0.6-0.1-0.9l0.3-0.4c0.2-0.3,0.6-0.4,0.9-0.1l2.9,2.1
		C42.2,14.4,42.3,14.8,42,15.1z"/>
</g>
<g id="Calque_9">
	<path class="st33" d="M33.4,37.1c0,0.5-0.4,0.8-0.8,0.8s-0.8-0.4-0.8-0.8s0.4-0.8,0.8-0.8h0C33,36.3,33.4,36.6,33.4,37.1z"/>
	<g id="true_sun_3_">
		<g>
			<path class="st34" d="M41.5,37.1c0,1.7-0.5,3.2-1.3,4.6c-0.3,0.6-0.8,1.1-1.2,1.6c-1.4,1.4-3.2,2.4-5.2,2.6
				c-0.4,0.1-0.8,0.1-1.1,0.1c-0.3,0-0.6,0-0.8,0c-2-0.2-3.9-1.1-5.3-2.4c-0.5-0.5-0.9-1-1.3-1.5c-0.9-1.4-1.4-3.1-1.4-4.8
				c0-0.3,0-0.6,0-0.8c0.1-0.7,0.2-1.3,0.4-2c0.6-1.9,1.9-3.6,3.6-4.6c0.6-0.4,1.1-0.7,1.8-0.9c1-0.3,2-0.5,3.1-0.5
				c1,0,1.9,0.1,2.8,0.4c0.6,0.2,1.3,0.5,1.8,0.8l0,0c1.7,1,3,2.6,3.7,4.5c0.2,0.6,0.4,1.3,0.5,1.9C41.5,36.3,41.5,36.7,41.5,37.1z"
				/>
			<path class="st34" d="M31.7,47.1l-6.6,6.3l0.5-9.1C27.2,45.8,29.3,46.8,31.7,47.1z"/>
			<path class="st34" d="M40.8,53.3L34,47.2c2.3-0.3,4.4-1.4,6-3L40.8,53.3z"/>
			<path class="st34" d="M41.3,42.4c0.9-1.5,1.5-3.3,1.5-5.2c0-0.4,0-0.9-0.1-1.3l7.6,5L41.3,42.4z"/>
			<path class="st34" d="M46.6,25.7l-4.4,8c-0.8-2.2-2.3-4-4.3-5.2L46.6,25.7z"/>
			<path class="st34" d="M35.8,27.5c-1-0.3-2.1-0.5-3.2-0.5c-1.2,0-2.4,0.2-3.5,0.6l3.2-8.5L35.8,27.5z"/>
			<path class="st34" d="M27.1,28.7c-1.9,1.2-3.4,3.1-4.1,5.3l-4.7-7.8L27.1,28.7z"/>
			<path class="st34" d="M24.2,42.8l-9-1.2l7.4-5.3c0,0.3,0,0.6,0,1C22.5,39.3,23.1,41.2,24.2,42.8z"/>
		</g>
	</g>
	<path class="st33" d="M40.5,3.9v1.8c0,1.2-1,2.2-2.2,2.2h-2.7V12c-1.1-0.1-2.2-0.2-3.3-0.2c-1,0-1.9,0.1-2.9,0.2v-4h-3.1
		c-1.2,0-2.2-1-2.2-2.2V3.9c0-1.2,1-2.2,2.2-2.2h11.9C39.5,1.8,40.5,2.7,40.5,3.9z"/>
	<path class="st33" d="M53.9,15.9l-0.6,0.8c-0.4,0.6-1.2,0.7-1.7,0.3l-1.2-0.9L49,17.9c-0.4-0.4-0.9-0.8-1.4-1.2
		c-0.4-0.3-0.9-0.6-1.3-0.9l1.3-1.8l-1.4-1c-0.5-0.4-0.7-1.2-0.3-1.7l0.6-0.8c0.4-0.5,1.1-0.7,1.7-0.3l5.4,3.9
		C54.1,14.6,54.3,15.3,53.9,15.9z"/>
	<path class="st33" d="M16.3,14.6l1.5,1.8c-0.5,0.3-1,0.7-1.5,1.1c-0.4,0.3-0.8,0.7-1.2,1.1l-1.4-1.7l-1.3,1.1
		c-0.5,0.4-1.3,0.3-1.7-0.2l-0.6-0.8c-0.4-0.5-0.3-1.3,0.2-1.7l5.1-4.2c0.5-0.4,1.3-0.3,1.7,0.2l0.6,0.8c0.4,0.5,0.4,1.3-0.2,1.7
		L16.3,14.6z"/>
	<path class="st14" d="M40.7,57.6c1-0.4,2-0.9,2.9-1.4C42.7,56.7,41.7,57.2,40.7,57.6z M45,55.3c0.9-0.6,1.7-1.3,2.5-2
		C46.7,54.1,45.9,54.7,45,55.3z"/>
	<path class="st33" d="M33.4,37.1c0,0.5-0.4,0.8-0.8,0.8s-0.8-0.4-0.8-0.8s0.4-0.8,0.8-0.8h0C33,36.3,33.4,36.6,33.4,37.1z"/>
	<path class="st33" d="M43.6,56.2c-0.9,0.6-1.9,1-2.9,1.4C41.7,57.2,42.7,56.7,43.6,56.2z"/>
	<path class="st33" d="M47.5,53.3c-0.8,0.7-1.6,1.4-2.5,2C45.9,54.7,46.7,54.1,47.5,53.3z"/>
	<line class="st35" x1="32.5" y1="37.1" x2="32.5" y2="24.5"/>
	<line class="st35" x1="32.5" y1="37.1" x2="40.5" y2="37.1"/>
	<path class="st33" d="M16.3,14.6l1.5,1.8c-0.5,0.3-1,0.7-1.5,1.1c-0.4,0.3-0.8,0.7-1.2,1.1l-1.4-1.7l-1.3,1.1
		c-0.5,0.4-1.3,0.3-1.7-0.2l-0.6-0.8c-0.4-0.5-0.3-1.3,0.2-1.7l5.1-4.2c0.5-0.4,1.3-0.3,1.7,0.2l0.6,0.8c0.4,0.5,0.4,1.3-0.2,1.7
		L16.3,14.6z"/>
	<path class="st33" d="M35.8,12.1c-1.1-0.1-2.2-0.2-3.3-0.2c-1,0-1.9,0.1-2.9,0.2c-9.3,1-17,7.1-20.4,15.4c-0.4,0.9-0.7,1.8-1,2.7
		c-0.5,1.7-0.8,3.6-0.9,5.4c0,0.5-0.1,1-0.1,1.5c0,1,0.1,2.1,0.2,3.1c0.2,1.8,0.6,3.5,1.2,5.2c0.3,0.9,0.7,1.7,1.1,2.6
		c4,8.5,12.7,14.3,22.7,14.3c13.9,0,25.2-11.3,25.2-25.2C57.7,24.3,48.2,13.7,35.8,12.1z M53,45.4L53,45.4c0,0.1-0.1,0.2-0.1,0.2
		c-0.2,0.4-0.4,0.8-0.6,1.3c-0.2,0.5-0.5,1-0.8,1.4c-0.2,0.4-0.4,0.7-0.7,1.1c-0.1,0.1-0.2,0.3-0.3,0.5c-0.3,0.4-0.6,0.7-0.8,1.1
		c-0.3,0.4-0.7,0.8-1,1.2s-0.8,0.8-1.1,1.1c-0.8,0.7-1.6,1.4-2.5,2c-0.4,0.3-0.9,0.6-1.4,0.9c-0.9,0.6-1.9,1-2.9,1.4
		c-0.4,0.2-0.8,0.3-1.2,0.4c-0.5,0.2-1,0.3-1.5,0.4c-0.2,0.1-0.4,0.1-0.6,0.2c-0.3,0.1-0.7,0.1-1.1,0.2c-0.2,0-0.3,0.1-0.5,0.1
		c-0.5,0.1-1,0.1-1.4,0.2c0,0-0.1,0-0.1,0c-0.6,0.1-1.1,0.1-1.7,0.1c-8.9,0-16.6-5.3-20.1-12.9c-0.3-0.7-0.6-1.5-0.9-2.3
		c-0.2-0.6-0.4-1.2-0.5-1.9c-0.4-1.6-0.6-3.3-0.6-5.1c0-1.3,0.1-2.7,0.3-3.9c0.1-0.7,0.3-1.3,0.4-2c0.2-0.8,0.5-1.5,0.8-2.3
		c2.9-7.3,9.6-12.7,17.7-13.8c0.9-0.1,1.9-0.2,2.9-0.2c1.1,0,2.2,0.1,3.3,0.2c0.5,0.1,0.9,0.1,1.4,0.3c0.3,0.1,0.6,0.1,0.8,0.2
		c0.2,0.1,0.5,0.1,0.7,0.2c0.3,0.1,0.6,0.2,0.9,0.3c0.2,0.1,0.4,0.1,0.6,0.2c0.3,0.1,0.6,0.2,0.8,0.3c0.1,0.1,0.2,0.1,0.4,0.2
		c0.7,0.3,1.5,0.7,2.1,1.1c0.4,0.2,0.8,0.5,1.3,0.8c0.4,0.3,0.7,0.5,1,0.8c0.4,0.3,0.7,0.6,1.1,0.9c0.3,0.3,0.6,0.5,0.9,0.8
		c0,0,0.1,0.1,0.1,0.1c0.3,0.3,0.6,0.7,0.9,1c0.3,0.3,0.6,0.7,0.9,1c0,0,0,0,0,0c0.3,0.3,0.6,0.7,0.8,1.1c0,0,0,0,0,0
		c0.3,0.4,0.5,0.7,0.7,1.1c0,0,0.1,0.1,0.1,0.1c0.2,0.4,0.4,0.7,0.6,1.1c0.2,0.4,0.4,0.8,0.6,1.3c0.2,0.3,0.3,0.7,0.4,1
		c0.1,0.3,0.3,0.7,0.4,1.1c0.1,0.4,0.3,0.9,0.4,1.3c0.1,0.3,0.1,0.6,0.2,0.9c0.1,0.4,0.2,0.9,0.2,1.3c0.1,0.3,0.1,0.7,0.1,1
		c0,0.4,0.1,0.8,0.1,1.2c0,0.4,0,0.8,0,1.2c0,0.6,0,1.3-0.1,1.9C54.4,41.3,53.8,43.4,53,45.4z"/>
	<path class="st33" d="M24.3,5.7V3.9c0-1.2,1-2.2,2.2-2.2h11.9c1.2,0,2.2,1,2.2,2.2v1.8c0,1.2-1,2.2-2.2,2.2h-2.7V12
		c-1.1-0.1-2.2-0.2-3.3-0.2c-1,0-1.9,0.1-2.9,0.2v-4h-3.1C25.3,7.9,24.3,6.9,24.3,5.7z"/>
	<path class="st33" d="M54.6,35.9c0-0.4-0.1-0.8-0.1-1.2c0-0.3-0.1-0.7-0.1-1c-0.1-0.4-0.1-0.9-0.2-1.3c-0.1-0.3-0.1-0.6-0.2-0.9
		c-0.1-0.5-0.2-0.9-0.4-1.3c-0.1-0.3-0.2-0.7-0.4-1.1c-0.1-0.3-0.3-0.7-0.4-1c-0.2-0.4-0.4-0.8-0.6-1.3c-0.2-0.4-0.4-0.7-0.6-1.1
		c0,0,0-0.1-0.1-0.1c-0.2-0.4-0.5-0.8-0.7-1.1c0,0,0,0,0,0c-0.3-0.4-0.5-0.7-0.8-1.1c0,0,0,0,0,0c-0.3-0.3-0.6-0.7-0.9-1
		c-0.3-0.3-0.6-0.7-0.9-1c-0.1,0-0.1-0.1-0.1-0.1c-0.3-0.3-0.6-0.5-0.9-0.8c-0.3-0.3-0.7-0.6-1.1-0.9c-0.3-0.3-0.7-0.5-1-0.8
		c-0.4-0.3-0.8-0.5-1.3-0.8c-0.7-0.4-1.4-0.8-2.1-1.1c-0.1-0.1-0.3-0.1-0.4-0.2c-0.3-0.1-0.6-0.2-0.8-0.3c-0.2-0.1-0.4-0.1-0.6-0.2
		c-0.3-0.1-0.6-0.2-0.9-0.3c-0.2-0.1-0.4-0.1-0.7-0.2c-0.3-0.1-0.6-0.1-0.8-0.2c-0.5-0.1-0.9-0.2-1.4-0.3C34.7,15,33.7,15,32.5,15
		c-1,0-1.9,0.1-2.9,0.2c-8.1,1-14.8,6.4-17.7,13.8c-0.3,0.7-0.6,1.5-0.8,2.3c-0.2,0.6-0.3,1.3-0.4,2c-0.2,1.3-0.3,2.6-0.3,3.9
		c0,1.8,0.2,3.5,0.6,5.1c0.1,0.6,0.3,1.3,0.5,1.9c0.3,0.8,0.6,1.5,0.9,2.3c3.5,7.6,11.2,12.9,20.1,12.9c0.6,0,1.1,0,1.7-0.1
		c0,0,0.1,0,0.1,0c0.5,0,1-0.1,1.4-0.2c0.2,0,0.3,0,0.5-0.1c0.4-0.1,0.7-0.1,1.1-0.2c0.2-0.1,0.4-0.1,0.6-0.2c0.5-0.1,1-0.3,1.5-0.4
		c0.4-0.1,0.8-0.3,1.2-0.4c1-0.4,2-0.9,2.9-1.4c0.5-0.3,0.9-0.6,1.4-0.9c0.9-0.6,1.7-1.3,2.5-2c0.4-0.4,0.8-0.8,1.1-1.1
		c0.4-0.4,0.7-0.8,1-1.2c0.3-0.4,0.6-0.7,0.8-1.1c0.1-0.1,0.2-0.3,0.3-0.5c0.2-0.3,0.5-0.7,0.7-1.1c0.3-0.5,0.5-0.9,0.8-1.4
		c0.2-0.4,0.4-0.8,0.6-1.3c0-0.1,0.1-0.1,0.1-0.2v0c0.8-2,1.4-4.2,1.5-6.4c0.1-0.6,0.1-1.3,0.1-1.9C54.6,36.7,54.6,36.3,54.6,35.9z
		 M32.5,37.9c-0.5,0-0.8-0.4-0.8-0.8s0.4-0.8,0.8-0.8h0c0.5,0,0.8,0.4,0.8,0.8S33,37.9,32.5,37.9z"/>
	<path class="st35" d="M33.4,37.1c0,0.5-0.4,0.8-0.8,0.8s-0.8-0.4-0.8-0.8s0.4-0.8,0.8-0.8h0C33,36.3,33.4,36.6,33.4,37.1z"/>
	<path class="st33" d="M43.6,56.2c-0.9,0.6-1.9,1-2.9,1.4C41.7,57.2,42.7,56.7,43.6,56.2z"/>
	<path class="st33" d="M47.5,53.3c-0.8,0.7-1.6,1.4-2.5,2C45.9,54.7,46.7,54.1,47.5,53.3z"/>
	<path class="st33" d="M53.9,15.9l-0.6,0.8c-0.4,0.6-1.2,0.7-1.7,0.3l-1.2-0.9L49,17.9c-0.4-0.4-0.9-0.8-1.4-1.2
		c-0.4-0.3-0.9-0.6-1.3-0.9l1.3-1.8l-1.4-1c-0.5-0.4-0.7-1.2-0.3-1.7l0.6-0.8c0.4-0.5,1.1-0.7,1.7-0.3l5.4,3.9
		C54.1,14.6,54.3,15.3,53.9,15.9z"/>
</g>
</svg>
