<?xml version="1.0" encoding="utf-8"?>
<!-- Generator: Adobe Illustrator 25.0.0, SVG Export Plug-In . SVG Version: 6.00 Build 0)  -->
<svg version="1.1" id="Calque_1" xmlns="http://www.w3.org/2000/svg" xmlns:xlink="http://www.w3.org/1999/xlink" x="0px" y="0px"
	 viewBox="0 0 64 64" style="enable-background:new 0 0 64 64;" xml:space="preserve">
<style type="text/css">
	.st0{display:none;opacity:0.5;}
	.st1{display:inline;}
	.st2{display:none;}
	.st3{display:inline;fill:none;stroke:#000000;stroke-width:2;stroke-miterlimit:10;}
	.st4{display:inline;stroke:#000000;stroke-width:4;stroke-miterlimit:10;}
	.st5{display:inline;stroke:#FFFFFF;stroke-width:4;stroke-miterlimit:10;}
	.st6{fill:#FFFFFF;}
	.st7{fill:#FFF200;stroke:#FFFFFF;stroke-miterlimit:10;}
	.st8{fill:#BE1E2D;stroke:#FFFFFF;stroke-miterlimit:10;}
	.st9{fill:#8DC63F;stroke:#FFFFFF;stroke-miterlimit:10;}
	.st10{fill:#F15A29;stroke:#FFFFFF;stroke-miterlimit:10;}
	.st11{fill:#F15A24;stroke:#FFFFFF;stroke-miterlimit:10;}
	.st12{stroke:#000000;stroke-miterlimit:10;}
	.st13{fill:#A7A9AC;stroke:#000000;stroke-miterlimit:10;}
	.st14{fill:#FFC935;stroke:#FFFFFF;stroke-width:0.75;stroke-miterlimit:10;}
	.st15{fill:#C1272D;stroke:#FFFFFF;stroke-miterlimit:10;}
	.st16{fill:#D9E021;stroke:#FFFFFF;stroke-miterlimit:10;}
	.st17{fill:#8CC63F;stroke:#FFFFFF;stroke-miterlimit:10;}
	.st18{font-family:'ArialRoundedMTBold';}
	.st19{font-size:7.5598px;}
</style>
<g class="st0">
	<g id="Calque_1_1_" class="st1">
		<rect width="64" height="64"/>
	</g>
</g>
<g class="st2">
	<path class="st3" d="M59.4,32c0,0-12.3,15.7-27.4,15.7S4.6,32,4.6,32S16.9,16.3,32,16.3S59.4,32,59.4,32z"/>
	<circle class="st4" cx="32" cy="31.5" r="11.4"/>
	<circle class="st5" cx="32" cy="31.5" r="8.7"/>
	<g class="st1">
		<path class="st6" d="M31,36.3c0.8-0.2,1.5-0.3,2.2-0.5c0.7-0.2,1.3-0.6,1.7-1c0.5-0.4,0.8-1,1.1-1.7s0.3-1.4,0.4-2.1
			c0.3,0.7,0.4,1.5,0.3,2.3c-0.1,0.8-0.5,1.6-1.1,2.2c-0.6,0.6-1.4,0.9-2.2,1C32.6,36.7,31.8,36.6,31,36.3z"/>
	</g>
</g>
<g id="Calque_4" class="st2">
	<g id="pression" class="st1">
		<g>
			<path class="st7" d="M31.6,15.3v28c0,0,0,0-0.1,0c-0.1,0-0.1,0-0.2,0.1l-9.4-9.3L11.4,23.8C16.6,18.5,23.8,15.3,31.6,15.3z"/>
			<path class="st8" d="M60,43.7H32c0-0.1,0-0.2-0.1-0.3l0.7-0.8l0,0l8.4-8.8l10.2-10.7C56.7,28.3,60,35.6,60,43.7z"/>
			<path class="st9" d="M31.4,43.4c-0.1,0.1-0.1,0.2-0.1,0.3h-28c0-7.8,3.1-14.8,8.2-19.9L22,34.1L31.4,43.4z"/>
			<path class="st10" d="M36.5,30.4l-4.9,12.7v0.2c0.1,0,0.2,0,0.2,0.1l0.7-0.8l0,0l4.6-11.9L36.5,30.4z"/>
			<path class="st11" d="M51.2,23.2L41,33.8l-8.4,8.8l4.6-11.9l-0.7-0.3l-4.9,12.7V15.3C39.2,15.3,46.1,18.3,51.2,23.2z"/>
			<path class="st12" d="M33.7,43.7c0,1.1-0.9,2-2,2s-2-0.9-2-2c0-0.6,0.2-1.1,0.6-1.5c0.4-0.3,0.9-0.6,1.5-0.6s1,0.2,1.4,0.6
				C33.5,42.5,33.7,43.1,33.7,43.7z"/>
			<path class="st12" d="M37.2,30.7l-3.9,10l0,0L33,41.5l-1.6,4l-0.1-0.1l-0.4-0.1c0,0,0,0,0,0l0,0l1.4-3.7l0.2-0.5l0.1-0.2
				l4.2-10.6L37.2,30.7z"/>
		</g>
		<polygon class="st13" points="39.2,25 39.7,28.4 40.2,31.9 37,30.6 33.7,29.3 36.4,27.2 		"/>
	</g>
</g>
<g id="Calque_5">
	<g id="true_sun">
		<g>
			<path class="st14" d="M49.7,31.3c0,1.7-0.5,3.3-1.3,4.7c-0.3,0.6-0.8,1.1-1.2,1.6c-1.4,1.4-3.2,2.4-5.3,2.7
				c-0.4,0-0.8,0.1-1.2,0.1c-0.3,0-0.6,0-0.9,0c-1.7-0.2-3.3-0.8-4.6-1.9V24.2c0.2-0.2,0.4-0.3,0.6-0.4c0.6-0.4,1.2-0.7,1.8-0.9
				c1-0.4,2-0.6,3.1-0.6c1,0,1.9,0.2,2.8,0.5c0.7,0.2,1.3,0.5,1.9,0.9c1.7,1,3.1,2.7,3.8,4.6c0.2,0.6,0.4,1.3,0.5,2
				C49.7,30.6,49.7,31,49.7,31.3z"/>
			<path class="st14" d="M39.7,41.5l-4.5,4.3V40C36.5,40.8,38,41.3,39.7,41.5z"/>
			<path class="st14" d="M48.9,47.8L42,41.7c2.4-0.3,4.5-1.4,6.1-3.1L48.9,47.8z"/>
			<path class="st14" d="M49.5,36.8c1-1.6,1.5-3.4,1.5-5.3c0-0.4,0-0.9-0.1-1.3l7.7,5.1L49.5,36.8z"/>
			<path class="st14" d="M54.8,19.7l-4.5,8.1c-0.8-2.2-2.4-4-4.3-5.3L54.8,19.7z"/>
			<path class="st14" d="M43.9,21.6c-1-0.3-2.1-0.5-3.2-0.5c-1.3,0-2.4,0.2-3.6,0.6l3.3-8.7L43.9,21.6z"/>
		</g>
	</g>
	<rect x="9.3" y="15.9" class="st11" width="24.7" height="15.7"/>
	<path class="st15" d="M34,6.7v9.2H9.3V6.7c0-3,2.6-5.5,5.8-5.5h13.1C31.4,1.2,34,3.7,34,6.7z"/>
	<rect x="9.3" y="32" class="st16" width="24.7" height="15.2"/>
	<path class="st17" d="M34,47.2V56c0,3.1-2.6,5.6-5.8,5.6H15.1c-3.2,0-5.8-2.5-5.8-5.6v-8.8H34z"/>
	<rect x="9.3" y="47.2" class="st16" width="24.7" height="0"/>
	<text transform="matrix(1 0 0 1 36.4483 34.5821)" class="st6 st18 st19">UV</text>
</g>
</svg>
