<?xml version="1.0" encoding="utf-8"?>
<!-- Generator: Adobe Illustrator 25.0.0, SVG Export Plug-In . SVG Version: 6.00 Build 0)  -->
<svg version="1.1" id="Calque_1" xmlns="http://www.w3.org/2000/svg" xmlns:xlink="http://www.w3.org/1999/xlink" x="0px" y="0px"
	 viewBox="0 0 64 64" style="enable-background:new 0 0 64 64;" xml:space="preserve">
<style type="text/css">
	.st0{opacity:0.5;}
	.st1{fill:none;stroke:#000000;stroke-width:2;stroke-miterlimit:10;}
	.st2{stroke:#000000;stroke-width:4;stroke-miterlimit:10;}
	.st3{stroke:#FFFFFF;stroke-width:4;stroke-miterlimit:10;}
	.st4{fill:#FFFFFF;}
</style>
<g class="st0">
	<g id="Calque_1_1_">
	</g>
</g>
<g>
	<path class="st1" d="M62.1,32c0,0-13.5,17.2-30.1,17.2S1.9,32,1.9,32S15.4,14.8,32,14.8S62.1,32,62.1,32z"/>
	<circle class="st2" cx="32" cy="31.5" r="12.5"/>
	<circle class="st3" cx="32" cy="31.5" r="9.5"/>
	<g>
		<path class="st4" d="M30.9,36.8c0.8-0.2,1.6-0.3,2.4-0.6c0.7-0.3,1.4-0.6,1.9-1.1c0.5-0.5,0.9-1.1,1.2-1.8
			c0.3-0.7,0.4-1.5,0.5-2.4c0.4,0.8,0.5,1.7,0.4,2.6c-0.1,0.9-0.6,1.8-1.3,2.4c-0.7,0.6-1.6,1-2.4,1.2
			C32.6,37.1,31.7,37.1,30.9,36.8z"/>
	</g>
</g>
</svg>
